<svg width="54" height="54" viewBox="0 0 54 54" fill="none" xmlns="http://www.w3.org/2000/svg">
<path d="M27 0C29.4785 0 31.8691 0.316406 34.1719 0.949219C36.4746 1.58203 38.6279 2.4873 40.6318 3.66504C42.6357 4.84277 44.4551 6.24902 46.0898 7.88379C47.7246 9.51855 49.1309 11.3467 50.3086 13.3682C51.4863 15.3896 52.3916 17.543 53.0244 19.8281C53.6572 22.1133 53.9824 24.5039 54 27C54 29.4785 53.6836 31.8691 53.0508 34.1719C52.418 36.4746 51.5127 38.6279 50.335 40.6318C49.1572 42.6357 47.751 44.4551 46.1162 46.0898C44.4814 47.7246 42.6533 49.1309 40.6318 50.3086C38.6104 51.4863 36.457 52.3916 34.1719 53.0244C31.8867 53.6572 29.4961 53.9824 27 54C24.5215 54 22.1309 53.6836 19.8281 53.0508C17.5254 52.418 15.3721 51.5127 13.3682 50.335C11.3643 49.1572 9.54492 47.751 7.91016 46.1162C6.27539 44.4814 4.86914 42.6533 3.69141 40.6318C2.51367 38.6104 1.6084 36.4658 0.975586 34.1982C0.342773 31.9307 0.0175781 29.5312 0 27C0 24.5215 0.316406 22.1309 0.949219 19.8281C1.58203 17.5254 2.4873 15.3721 3.66504 13.3682C4.84277 11.3643 6.24902 9.54492 7.88379 7.91016C9.51855 6.27539 11.3467 4.86914 13.3682 3.69141C15.3896 2.51367 17.5342 1.6084 19.8018 0.975586C22.0693 0.342773 24.4688 0.0175781 27 0ZM27 50.625C29.1621 50.625 31.2451 50.3438 33.249 49.7812C35.2529 49.2187 37.1338 48.4277 38.8916 47.4082C40.6494 46.3887 42.249 45.1494 43.6904 43.6904C45.1318 42.2314 46.3623 40.6406 47.3818 38.918C48.4014 37.1953 49.2012 35.3145 49.7812 33.2754C50.3613 31.2363 50.6426 29.1445 50.625 27C50.625 24.8379 50.3438 22.7549 49.7812 20.751C49.2187 18.7471 48.4277 16.8662 47.4082 15.1084C46.3887 13.3506 45.1494 11.751 43.6904 10.3096C42.2314 8.86816 40.6406 7.6377 38.918 6.61816C37.1953 5.59863 35.3145 4.79883 33.2754 4.21875C31.2363 3.63867 29.1445 3.35742 27 3.375C24.8379 3.375 22.7549 3.65625 20.751 4.21875C18.7471 4.78125 16.8662 5.57227 15.1084 6.5918C13.3506 7.61133 11.751 8.85059 10.3096 10.3096C8.86816 11.7686 7.6377 13.3594 6.61816 15.082C5.59863 16.8047 4.79883 18.6855 4.21875 20.7246C3.63867 22.7637 3.35742 24.8555 3.375 27C3.375 29.1621 3.65625 31.2451 4.21875 33.249C4.78125 35.2529 5.57227 37.1338 6.5918 38.8916C7.61133 40.6494 8.85059 42.249 10.3096 43.6904C11.7686 45.1318 13.3594 46.3623 15.082 47.3818C16.8047 48.4014 18.6855 49.2012 20.7246 49.7812C22.7637 50.3613 24.8555 50.6426 27 50.625ZM42.7412 27.4219L44.0068 23.625H45.9844L43.7432 30.375H41.7656L40.5 26.5781L39.2344 30.375H37.2568L35.0156 23.625H36.9932L38.2588 27.4219L39.5244 23.625H41.4756L42.7412 27.4219ZM30.5068 23.625H32.4844L30.2432 30.375H28.2656L27 26.5781L25.7344 30.375H23.7568L21.5156 23.625H23.4932L24.7588 27.4219L26.0244 23.625H27.9756L29.2412 27.4219L30.5068 23.625ZM17.0068 23.625H18.9844L16.7432 30.375H14.7656L13.5 26.5781L12.2344 30.375H10.2568L8.01562 23.625H9.99316L11.2588 27.4219L12.5244 23.625H14.4756L15.7412 27.4219L17.0068 23.625Z" fill="#B45C9B"/>
</svg>
