<svg width="54" height="55" viewBox="0 0 54 55" fill="none" xmlns="http://www.w3.org/2000/svg">
<g clip-path="url(#clip0_330_1266)">
<path d="M47.25 14.1592V47.9092C47.25 48.8408 47.0742 49.7109 46.7227 50.5195C46.3711 51.3281 45.8877 52.04 45.2725 52.6553C44.6572 53.2705 43.9365 53.7539 43.1104 54.1055C42.2842 54.457 41.4141 54.6416 40.5 54.6592H10.125C9.19336 54.6592 8.32324 54.4834 7.51465 54.1318C6.70605 53.7803 5.99414 53.2969 5.37891 52.6816C4.76367 52.0664 4.28027 51.3545 3.92871 50.5459C3.57715 49.7373 3.39258 48.8584 3.375 47.9092V14.1592H10.125V10.7842C10.125 9.39551 10.3887 8.08594 10.916 6.85547C11.4434 5.625 12.1729 4.55273 13.1045 3.63867C14.0361 2.72461 15.1084 2.00391 16.3213 1.47656C17.5342 0.949219 18.8438 0.676758 20.25 0.65918C22.0781 0.65918 23.7744 1.11621 25.3389 2.03027C26.9033 1.11621 28.582 0.65918 30.375 0.65918C31.7637 0.65918 33.0732 0.922852 34.3037 1.4502C35.5342 1.97754 36.6064 2.70703 37.5205 3.63867C38.4346 4.57031 39.1553 5.64258 39.6826 6.85547C40.21 8.06836 40.4824 9.37793 40.5 10.7842V14.1592H47.25ZM37.125 10.7842C37.125 9.87012 36.9492 9 36.5977 8.17383C36.2461 7.34766 35.7627 6.63574 35.1475 6.03809C34.5322 5.44043 33.8115 4.95703 32.9854 4.58789C32.1592 4.21875 31.2891 4.03418 30.375 4.03418C29.584 4.03418 28.8369 4.16602 28.1338 4.42969C28.6436 5.0625 29.0479 5.68652 29.3467 6.30176C29.6455 6.91699 29.8652 7.53223 30.0059 8.14746C30.1465 8.7627 30.2432 9.38672 30.2959 10.0195C30.3486 10.6523 30.375 11.3291 30.375 12.0498V14.1592H37.125V10.7842ZM13.5 14.1592H27V10.7842C27 9.87012 26.8242 9 26.4727 8.17383C26.1211 7.34766 25.6377 6.63574 25.0225 6.03809C24.4072 5.44043 23.6865 4.95703 22.8604 4.58789C22.0342 4.21875 21.1641 4.03418 20.25 4.03418C19.3184 4.03418 18.4482 4.20996 17.6396 4.56152C16.8311 4.91309 16.1191 5.39648 15.5039 6.01172C14.8887 6.62695 14.4053 7.34766 14.0537 8.17383C13.7021 9 13.5176 9.87012 13.5 10.7842V14.1592ZM34.6465 51.2842C34.0488 50.2295 33.75 49.1045 33.75 47.9092V17.5342H6.75V47.9092C6.75 48.3838 6.83789 48.8232 7.01367 49.2275C7.18945 49.6318 7.42676 49.9834 7.72559 50.2822C8.02441 50.5811 8.38477 50.8271 8.80664 51.0205C9.22852 51.2139 9.66797 51.3018 10.125 51.2842H34.6465ZM43.875 17.5342H37.125V47.9092C37.125 48.3838 37.2129 48.8232 37.3887 49.2275C37.5645 49.6318 37.8018 49.9834 38.1006 50.2822C38.3994 50.5811 38.7598 50.8271 39.1816 51.0205C39.6035 51.2139 40.043 51.3018 40.5 51.2842C40.9746 51.2842 41.4141 51.1963 41.8184 51.0205C42.2227 50.8447 42.5742 50.6074 42.873 50.3086C43.1719 50.0098 43.418 49.6494 43.6113 49.2275C43.8047 48.8057 43.8926 48.3662 43.875 47.9092V17.5342Z" fill="#B45C9B"/>
</g>
<defs>
<clipPath id="clip0_330_1266">
<rect width="54" height="54" fill="white" transform="translate(0 0.65918)"/>
</clipPath>
</defs>
</svg>
