<svg width="54" height="55" viewBox="0 0 54 55" fill="none" xmlns="http://www.w3.org/2000/svg">
<path d="M18 7.40918C13.8228 7.40918 9.81677 9.06855 6.86307 12.0222C3.90937 14.9759 2.25 18.982 2.25 23.1592C2.25 27.3363 3.90937 31.3424 6.86307 34.2961C9.81677 37.2498 13.8228 38.9092 18 38.9092H20.4075C20.194 37.4168 20.194 35.9016 20.4075 34.4092H18C15.0163 34.4092 12.1548 33.2239 10.045 31.1141C7.93526 29.0043 6.75 26.1429 6.75 23.1592C6.75 20.1755 7.93526 17.314 10.045 15.2042C12.1548 13.0944 15.0163 11.9092 18 11.9092H36C37.6684 11.9088 39.316 12.2796 40.8235 12.9946C42.3309 13.7096 43.6605 14.7509 44.7158 16.0432C45.7711 17.3354 46.5258 18.8462 46.9252 20.4661C47.3246 22.086 47.3587 23.7745 47.025 25.4092C48.3506 26.709 49.4367 28.2323 50.2335 29.9092C51.3723 27.5083 51.8852 24.8583 51.7244 22.2058C51.5635 19.5534 50.7342 16.9848 49.3136 14.7391C47.8929 12.4934 45.9272 10.6436 43.5994 9.36204C41.2716 8.08043 38.6573 7.40863 36 7.40918H18ZM36 29.9092C34.2098 29.9092 32.4929 30.6203 31.227 31.8862C29.9612 33.1521 29.25 34.869 29.25 36.6592C29.25 38.4494 29.9612 40.1663 31.227 41.4322C32.4929 42.698 34.2098 43.4092 36 43.4092C37.7902 43.4092 39.5071 42.698 40.773 41.4322C42.0388 40.1663 42.75 38.4494 42.75 36.6592C42.75 34.869 42.0388 33.1521 40.773 31.8862C39.5071 30.6203 37.7902 29.9092 36 29.9092ZM24.75 36.6592C24.7504 34.9051 25.161 33.1754 25.9489 31.6083C26.7369 30.0412 27.8804 28.68 29.2881 27.6335C30.6957 26.587 32.3286 25.8841 34.0563 25.5811C35.784 25.278 37.5587 25.3832 39.2385 25.8881C40.9183 26.393 42.4568 27.2838 43.7311 28.4892C45.0053 29.6946 45.9801 31.1813 46.5775 32.8305C47.1749 34.4797 47.3783 36.2457 47.1716 37.9876C46.9649 39.7294 46.3538 41.3988 45.387 42.8624L51.0908 48.5684L47.9092 51.7499L42.2032 46.0462C40.5076 47.167 38.5399 47.8074 36.5094 47.8994C34.4788 47.9915 32.4613 47.5316 30.6712 46.5689C28.8811 45.6061 27.3852 44.1763 26.3426 42.4314C25.3001 40.6865 24.7497 38.6918 24.75 36.6592Z" fill="#B45C9B"/>
</svg>
