<svg width="54" height="55" viewBox="0 0 54 55" fill="none" xmlns="http://www.w3.org/2000/svg">
<path d="M50.1306 33.2161L45.0681 28.1536C44.7516 27.8373 44.3225 27.6595 43.875 27.6595C43.4275 27.6595 42.9984 27.8373 42.6819 28.1536L27 43.8356V51.2842H34.4486L50.1306 35.6022C50.4469 35.2858 50.6246 34.8566 50.6246 34.4092C50.6246 33.9617 50.4469 33.5326 50.1306 33.2161ZM33.0514 47.9092H30.375V45.2328L38.8125 36.7953L41.4889 39.4717L33.0514 47.9092ZM43.875 37.0856L41.1986 34.4092L43.875 31.7328L46.5514 34.4092L43.875 37.0856ZM50.625 7.40918H38.8125V10.7842H44.8639L32.0625 23.5856L24.8181 16.3411C24.5016 16.0248 24.0725 15.847 23.625 15.847C23.1775 15.847 22.7484 16.0248 22.4319 16.3411L10.125 28.6481L12.5111 31.0342L23.625 19.9203L30.8694 27.1647C31.1859 27.4811 31.615 27.6588 32.0625 27.6588C32.51 27.6588 32.9391 27.4811 33.2556 27.1647L47.25 13.1703V19.2217H50.625V7.40918Z" fill="#B45C9B"/>
<path d="M6.75 4.03418H3.375V47.9092C3.375 48.8043 3.73058 49.6627 4.36351 50.2957C4.99645 50.9286 5.85489 51.2842 6.75 51.2842H20.25V47.9092H6.75V4.03418Z" fill="#B45C9B"/>
</svg>
