<svg width="54" height="55" viewBox="0 0 54 55" fill="none" xmlns="http://www.w3.org/2000/svg">
<path d="M28.125 45.6592H7.875C6.97989 45.6592 6.12145 45.3036 5.48851 44.6707C4.85558 44.0377 4.5 43.1793 4.5 42.2842V13.0342C4.5 12.1391 4.85558 11.2806 5.48851 10.6477C6.12145 10.0148 6.97989 9.65918 7.875 9.65918H46.125C47.0201 9.65918 47.8785 10.0148 48.5115 10.6477C49.1444 11.2806 49.5 12.1391 49.5 13.0342V28.7178" stroke="#B45C9B" stroke-width="4.5" stroke-linecap="round" stroke-linejoin="round"/>
<path d="M4.5 13.0342C4.5 12.1391 4.85558 11.2806 5.48851 10.6477C6.12145 10.0148 6.97989 9.65918 7.875 9.65918H46.125C47.0201 9.65918 47.8785 10.0148 48.5115 10.6477C49.1444 11.2806 49.5 12.1391 49.5 13.0342V23.1592H4.5V13.0342Z" stroke="#B45C9B" stroke-width="4.5"/>
<path d="M36 40.0342H49.5M42.75 33.2842V46.7842" stroke="#B45C9B" stroke-width="4.5" stroke-linecap="round" stroke-linejoin="round"/>
<path d="M9 16.4092C9 15.1665 10.0074 14.1592 11.25 14.1592C12.4926 14.1592 13.5 15.1665 13.5 16.4092C13.5 17.6518 12.4926 18.6592 11.25 18.6592C10.0074 18.6592 9 17.6518 9 16.4092Z" fill="#B45C9B"/>
<path d="M15.75 16.4092C15.75 15.1665 16.7574 14.1592 18 14.1592C19.2426 14.1592 20.25 15.1665 20.25 16.4092C20.25 17.6518 19.2426 18.6592 18 18.6592C16.7574 18.6592 15.75 17.6518 15.75 16.4092Z" fill="#B45C9B"/>
</svg>
