<svg width="54" height="55" viewBox="0 0 54 55" fill="none" xmlns="http://www.w3.org/2000/svg">
<path d="M16.3931 7.40946C15.2423 7.40946 14.1386 7.86663 13.3248 8.68041C12.511 9.49418 12.0539 10.5979 12.0539 11.7487C12.0539 12.8996 12.511 14.0033 13.3248 14.8171C14.1386 15.6309 15.2423 16.088 16.3931 16.088C17.544 16.088 18.6477 15.6309 19.4615 14.8171C20.2752 14.0033 20.7324 12.8996 20.7324 11.7487C20.7324 10.5979 20.2752 9.49418 19.4615 8.68041C18.6477 7.86663 17.544 7.40946 16.3931 7.40946ZM9.16099 11.7487C9.16099 9.83066 9.92295 7.99114 11.2792 6.63485C12.6355 5.27856 14.4751 4.5166 16.3931 4.5166C18.3112 4.5166 20.1507 5.27856 21.507 6.63485C22.8633 7.99114 23.6253 9.83066 23.6253 11.7487C23.6253 13.6668 22.8633 15.5064 21.507 16.8626C20.1507 18.2189 18.3112 18.9809 16.3931 18.9809C14.4751 18.9809 12.6355 18.2189 11.2792 16.8626C9.92295 15.5064 9.16099 13.6668 9.16099 11.7487ZM3.85742 25.6962C3.85742 23.5844 5.56806 21.8737 7.67985 21.8737H18.4798C18.1141 22.7973 17.9017 23.7745 17.8511 24.7666H7.67985C7.43331 24.7666 7.19687 24.8645 7.02254 25.0389C6.84822 25.2132 6.75028 25.4496 6.75028 25.6962V26.4541C6.75028 26.7858 6.75414 28.7935 7.92092 30.6912C8.92378 32.3189 10.9179 34.0835 15.1589 34.369C14.1782 35.0061 13.4141 35.9262 12.968 37.0072C9.10121 36.2917 6.78306 34.3612 5.45814 32.2051C3.85742 29.6073 3.85742 26.9227 3.85742 26.4599V25.6962ZM35.5188 21.8737C35.8775 22.7763 36.0973 23.7502 36.1475 24.7666H46.3207C46.8337 24.7666 47.2503 25.1832 47.2503 25.6962V26.4541C47.2503 26.7858 47.2464 28.7935 46.0777 30.6912C45.0768 32.3189 43.0846 34.0835 38.8417 34.369C39.8156 35.0015 40.5851 35.9215 41.0326 37.0072C44.8993 36.2917 47.2175 34.3612 48.5424 32.2051C50.1431 29.6054 50.1431 26.9208 50.1431 26.458V25.6962C50.1431 24.6824 49.7404 23.7102 49.0236 22.9933C48.3067 22.2765 47.3345 21.8737 46.3207 21.8737H35.5188ZM37.6074 7.40946C36.4566 7.40946 35.3529 7.86663 34.5391 8.68041C33.7253 9.49418 33.2681 10.5979 33.2681 11.7487C33.2681 12.8996 33.7253 14.0033 34.5391 14.8171C35.3529 15.6309 36.4566 16.088 37.6074 16.088C38.7583 16.088 39.862 15.6309 40.6758 14.8171C41.4895 14.0033 41.9467 12.8996 41.9467 11.7487C41.9467 10.5979 41.4895 9.49418 40.6758 8.68041C39.862 7.86663 38.7583 7.40946 37.6074 7.40946ZM30.3753 11.7487C30.3753 9.83066 31.1372 7.99114 32.4935 6.63485C33.8498 5.27856 35.6893 4.5166 37.6074 4.5166C39.5255 4.5166 41.365 5.27856 42.7213 6.63485C44.0776 7.99114 44.8396 9.83066 44.8396 11.7487C44.8396 13.6668 44.0776 15.5064 42.7213 16.8626C41.365 18.2189 39.5255 18.9809 37.6074 18.9809C35.6893 18.9809 33.8498 18.2189 32.4935 16.8626C31.1372 15.5064 30.3753 13.6668 30.3753 11.7487ZM14.4646 39.1962C14.4646 37.0844 16.1752 35.3737 18.287 35.3737H35.7136C37.8253 35.3737 39.536 37.0844 39.536 39.1962V39.958C39.536 40.4208 39.536 43.1054 37.9353 45.7051C36.2574 48.436 32.9904 50.8023 27.0003 50.8023C21.0101 50.8023 17.7431 48.434 16.0653 45.707C14.4646 43.1054 14.4646 40.4227 14.4646 39.958V39.1962ZM18.287 38.2666C18.0405 38.2666 17.804 38.3645 17.6297 38.5389C17.4554 38.7132 17.3574 38.9496 17.3574 39.1962V39.9541C17.3574 40.2858 17.3613 42.2935 18.5281 44.1912C19.6235 45.9693 21.9011 47.9095 27.0003 47.9095C32.0994 47.9095 34.3771 45.9693 35.4706 44.1912C36.6393 42.2954 36.6431 40.2858 36.6431 39.9541V39.1962C36.6431 38.9496 36.5452 38.7132 36.3709 38.5389C36.1965 38.3645 35.9601 38.2666 35.7136 38.2666H18.287ZM22.661 25.2487C22.661 24.6789 22.7732 24.1146 22.9913 23.5882C23.2094 23.0617 23.529 22.5833 23.9319 22.1804C24.3349 21.7775 24.8132 21.4578 25.3397 21.2398C25.8662 21.0217 26.4304 20.9095 27.0003 20.9095C27.5701 20.9095 28.1344 21.0217 28.6609 21.2398C29.1873 21.4578 29.6657 21.7775 30.0686 22.1804C30.4716 22.5833 30.7912 23.0617 31.0093 23.5882C31.2273 24.1146 31.3396 24.6789 31.3396 25.2487C31.3396 26.3996 30.8824 27.5033 30.0686 28.3171C29.2548 29.1309 28.1511 29.588 27.0003 29.588C25.8494 29.588 24.7457 29.1309 23.9319 28.3171C23.1182 27.5033 22.661 26.3996 22.661 25.2487ZM27.0003 18.0166C25.0822 18.0166 23.2427 18.7786 21.8864 20.1348C20.5301 21.4911 19.7681 23.3307 19.7681 25.2487C19.7681 27.1668 20.5301 29.0064 21.8864 30.3626C23.2427 31.7189 25.0822 32.4809 27.0003 32.4809C28.9184 32.4809 30.7579 31.7189 32.1142 30.3626C33.4705 29.0064 34.2324 27.1668 34.2324 25.2487C34.2324 23.3307 33.4705 21.4911 32.1142 20.1348C30.7579 18.7786 28.9184 18.0166 27.0003 18.0166Z" fill="#B45C9B"/>
</svg>
