<svg width="54" height="54" viewBox="0 0 54 54" fill="none" xmlns="http://www.w3.org/2000/svg">
<path d="M13.5 13.5H16.875V20.25H13.5V13.5ZM13.5 23.625H16.875V30.375H13.5V23.625ZM23.625 13.5H27V20.25H23.625V13.5ZM23.625 23.625H27V30.375H23.625V23.625ZM13.5 33.75H16.875V40.5H13.5V33.75ZM23.625 33.75H27V40.5H23.625V33.75Z" fill="#956B8A"/>
<path d="M50.625 23.625C50.625 22.7299 50.2694 21.8715 49.6365 21.2385C49.0035 20.6056 48.1451 20.25 47.25 20.25H37.125V6.75C37.125 5.85489 36.7694 4.99645 36.1365 4.36351C35.5035 3.73058 34.6451 3.375 33.75 3.375H6.75C5.85489 3.375 4.99645 3.73058 4.36351 4.36351C3.73058 4.99645 3.375 5.85489 3.375 6.75V50.625H50.625V23.625ZM6.75 6.75H33.75V47.25H6.75V6.75ZM37.125 47.25V23.625H47.25V47.25H37.125Z" fill="#956B8A"/>
</svg>
