<svg width="54" height="54" viewBox="0 0 54 54" fill="none" xmlns="http://www.w3.org/2000/svg">
<path d="M49.5 6.75H4.5V20.25H6.75V45C6.75 46.1935 7.22411 47.3381 8.06802 48.182C8.91193 49.0259 10.0565 49.5 11.25 49.5H42.75C43.9435 49.5 45.0881 49.0259 45.932 48.182C46.7759 47.3381 47.25 46.1935 47.25 45V20.25H49.5V6.75ZM9 11.25H45V15.75H9V11.25ZM42.75 45H11.25V20.25H42.75V45ZM20.25 24.75H33.75C33.75 25.9435 33.2759 27.0881 32.432 27.932C31.5881 28.7759 30.4435 29.25 29.25 29.25H24.75C23.5565 29.25 22.4119 28.7759 21.568 27.932C20.7241 27.0881 20.25 25.9435 20.25 24.75Z" fill="#956B8A"/>
</svg>
