<svg width="54" height="54" viewBox="0 0 54 54" fill="none" xmlns="http://www.w3.org/2000/svg">
<path d="M19.125 38.25H13.3065L13.9657 37.5908C14.3756 37.1664 14.6024 36.598 14.5973 36.0081C14.5921 35.4182 14.3555 34.8538 13.9383 34.4367C13.5212 34.0195 12.9568 33.7829 12.3669 33.7777C11.777 33.7726 11.2086 33.9994 10.7843 34.4093L6.28425 38.9092C5.86463 39.3323 5.62918 39.9041 5.62918 40.5C5.62918 41.0959 5.86463 41.6677 6.28425 42.0908L10.7843 46.5908C11.2086 47.0006 11.777 47.2274 12.3669 47.2223C12.9568 47.2171 13.5212 46.9805 13.9383 46.5633C14.3555 46.1462 14.5921 45.5818 14.5973 44.9919C14.6024 44.402 14.3756 43.8336 13.9657 43.4092L13.3065 42.75H19.125C19.7217 42.75 20.294 42.5129 20.716 42.091C21.1379 41.669 21.375 41.0967 21.375 40.5C21.375 39.9033 21.1379 39.331 20.716 38.909C20.294 38.4871 19.7217 38.25 19.125 38.25ZM47.7158 38.9092L43.2158 34.4093C42.7914 33.9994 42.223 33.7726 41.6331 33.7777C41.0432 33.7829 40.4788 34.0195 40.0617 34.4367C39.6445 34.8538 39.4079 35.4182 39.4027 36.0081C39.3976 36.598 39.6244 37.1664 40.0342 37.5908L40.6935 38.25H34.875C34.2783 38.25 33.706 38.4871 33.284 38.909C32.8621 39.331 32.625 39.9033 32.625 40.5C32.625 41.0967 32.8621 41.669 33.284 42.091C33.706 42.5129 34.2783 42.75 34.875 42.75H40.6935L40.0342 43.4092C39.8194 43.6168 39.6479 43.8651 39.53 44.1396C39.4121 44.4141 39.35 44.7093 39.3474 45.0081C39.3448 45.3069 39.4018 45.6031 39.5149 45.8796C39.628 46.1562 39.7951 46.4074 40.0064 46.6186C40.2176 46.8299 40.4688 46.997 40.7454 47.1101C41.0219 47.2232 41.3181 47.2802 41.6169 47.2776C41.9157 47.275 42.2109 47.2129 42.4854 47.095C42.7599 46.9771 43.0082 46.8056 43.2158 46.5908L47.7158 42.0908C48.1354 41.6677 48.3708 41.0959 48.3708 40.5C48.3708 39.9041 48.1354 39.3323 47.7158 38.9092ZM46.44 21.987C47.6802 20.572 48.3674 18.7566 48.375 16.875C48.375 14.7864 47.5453 12.7834 46.0685 11.3065C44.5916 9.82969 42.5886 9 40.5 9C38.4114 9 36.4084 9.82969 34.9315 11.3065C33.4547 12.7834 32.625 14.7864 32.625 16.875C32.6326 18.7566 33.3198 20.572 34.56 21.987C32.9399 22.9913 31.6023 24.3916 30.6733 26.056C29.7442 27.7203 29.2544 29.5939 29.25 31.5C29.25 32.0967 29.4871 32.669 29.909 33.091C30.331 33.5129 30.9033 33.75 31.5 33.75C32.0967 33.75 32.669 33.5129 33.091 33.091C33.5129 32.669 33.75 32.0967 33.75 31.5C33.75 29.7098 34.4612 27.9929 35.727 26.727C36.9929 25.4612 38.7098 24.75 40.5 24.75C42.2902 24.75 44.0071 25.4612 45.273 26.727C46.5388 27.9929 47.25 29.7098 47.25 31.5C47.25 32.0967 47.4871 32.669 47.909 33.091C48.331 33.5129 48.9033 33.75 49.5 33.75C50.0967 33.75 50.669 33.5129 51.091 33.091C51.5129 32.669 51.75 32.0967 51.75 31.5C51.7456 29.5939 51.2558 27.7203 50.3267 26.056C49.3977 24.3916 48.0601 22.9913 46.44 21.987ZM40.5 20.25C39.8325 20.25 39.18 20.0521 38.625 19.6812C38.0699 19.3104 37.6374 18.7833 37.3819 18.1666C37.1265 17.5499 37.0596 16.8713 37.1898 16.2166C37.3201 15.5619 37.6415 14.9605 38.1135 14.4885C38.5855 14.0165 39.1869 13.6951 39.8416 13.5648C40.4963 13.4346 41.1749 13.5015 41.7916 13.7569C42.4083 14.0124 42.9354 14.4449 43.3062 15C43.6771 15.555 43.875 16.2075 43.875 16.875C43.8738 17.7697 43.5178 18.6275 42.8852 19.2602C42.2525 19.8928 41.3947 20.2488 40.5 20.25ZM19.44 21.987C20.6802 20.572 21.3674 18.7566 21.375 16.875C21.375 14.7864 20.5453 12.7834 19.0685 11.3065C17.5916 9.82969 15.5886 9 13.5 9C11.4114 9 9.40838 9.82969 7.93153 11.3065C6.45469 12.7834 5.625 14.7864 5.625 16.875C5.63256 18.7566 6.31975 20.572 7.56 21.987C5.93991 22.9913 4.60228 24.3916 3.67326 26.056C2.74423 27.7203 2.25442 29.5939 2.25 31.5C2.25 32.0967 2.48705 32.669 2.90901 33.091C3.33097 33.5129 3.90326 33.75 4.5 33.75C5.09674 33.75 5.66903 33.5129 6.09099 33.091C6.51295 32.669 6.75 32.0967 6.75 31.5C6.75 29.7098 7.46116 27.9929 8.72703 26.727C9.9929 25.4612 11.7098 24.75 13.5 24.75C15.2902 24.75 17.0071 25.4612 18.273 26.727C19.5388 27.9929 20.25 29.7098 20.25 31.5C20.25 32.0967 20.4871 32.669 20.909 33.091C21.331 33.5129 21.9033 33.75 22.5 33.75C23.0967 33.75 23.669 33.5129 24.091 33.091C24.5129 32.669 24.75 32.0967 24.75 31.5C24.7456 29.5939 24.2558 27.7203 23.3267 26.056C22.3977 24.3916 21.0601 22.9913 19.44 21.987ZM13.5 20.25C12.8325 20.25 12.18 20.0521 11.625 19.6812C11.0699 19.3104 10.6374 18.7833 10.3819 18.1666C10.1265 17.5499 10.0596 16.8713 10.1898 16.2166C10.3201 15.5619 10.6415 14.9605 11.1135 14.4885C11.5855 14.0165 12.1869 13.6951 12.8416 13.5648C13.4963 13.4346 14.1749 13.5015 14.7916 13.7569C15.4083 14.0124 15.9354 14.4449 16.3062 15C16.6771 15.555 16.875 16.2075 16.875 16.875C16.8738 17.7697 16.5178 18.6275 15.8852 19.2602C15.2525 19.8928 14.3947 20.2488 13.5 20.25Z" fill="#956B8A"/>
</svg>
