<svg width="54" height="54" viewBox="0 0 54 54" fill="none" xmlns="http://www.w3.org/2000/svg">
<path d="M40.9236 36.0619L44.6259 38.529C44.9849 38.7684 45.4219 38.8613 45.8472 38.7885C46.2724 38.7156 46.6537 38.4827 46.9125 38.1375L51.975 31.3875L49.275 29.3625L45.1693 34.8367L41.4366 32.346C41.0721 32.1025 40.6272 32.0104 40.196 32.0892C39.7649 32.1679 39.3813 32.4113 39.1264 32.7679L33.75 40.2958V27H30.375V43.875C30.3759 44.7698 30.7318 45.6278 31.3645 46.2605C31.9972 46.8932 32.8552 47.2491 33.75 47.25H50.625V43.875H35.3413L40.9236 36.0619ZM3.375 35.4375H27V38.8125H3.375V35.4375ZM3.375 43.875H27V47.25H3.375V43.875ZM18.5625 27V18.5625H20.25C22.0395 18.5603 23.7551 17.8484 25.0205 16.583C26.2859 15.3176 26.9978 13.602 27 11.8125V6.75H21.9375C20.2095 6.75283 18.5491 7.42194 17.3019 8.61806C16.4281 7.03142 15.1448 5.70811 13.5857 4.78597C12.0267 3.86382 10.2489 3.37658 8.4375 3.375H3.375V8.4375C3.37813 11.1219 4.44587 13.6954 6.344 15.5935C8.24213 17.4916 10.8156 18.5594 13.5 18.5625H15.1875V27H3.375V30.375H27V27H18.5625ZM21.9375 10.125H23.625V11.8125C23.6241 12.7073 23.2682 13.5653 22.6355 14.198C22.0028 14.8307 21.1448 15.1866 20.25 15.1875H18.5625V13.5C18.5634 12.6052 18.9193 11.7472 19.552 11.1145C20.1847 10.4818 21.0427 10.1259 21.9375 10.125ZM13.5 15.1875C11.7105 15.1853 9.99488 14.4734 8.7295 13.208C7.46411 11.9426 6.75223 10.227 6.75 8.4375V6.75H8.4375C10.227 6.75223 11.9426 7.46411 13.208 8.7295C14.4734 9.99488 15.1853 11.7105 15.1875 13.5V15.1875H13.5Z" fill="#956B8A"/>
</svg>
