<svg width="54" height="54" viewBox="0 0 54 54" fill="none" xmlns="http://www.w3.org/2000/svg">
<path d="M28.125 45H7.875C6.97989 45 6.12145 44.6444 5.48851 44.0115C4.85558 43.3785 4.5 42.5201 4.5 41.625V12.375C4.5 11.4799 4.85558 10.6214 5.48851 9.98851C6.12145 9.35558 6.97989 9 7.875 9H46.125C47.0201 9 47.8785 9.35558 48.5115 9.98851C49.1444 10.6214 49.5 11.4799 49.5 12.375V28.0586" stroke="#956B8A" stroke-width="4.5" stroke-linecap="round" stroke-linejoin="round"/>
<path d="M4.5 12.375C4.5 11.4799 4.85558 10.6214 5.48851 9.98851C6.12145 9.35558 6.97989 9 7.875 9H46.125C47.0201 9 47.8785 9.35558 48.5115 9.98851C49.1444 10.6214 49.5 11.4799 49.5 12.375V22.5H4.5V12.375Z" stroke="#956B8A" stroke-width="4.5"/>
<path d="M36 39.375H49.5M42.75 32.625V46.125" stroke="#956B8A" stroke-width="4.5" stroke-linecap="round" stroke-linejoin="round"/>
<path d="M9 15.75C9 14.5074 10.0074 13.5 11.25 13.5C12.4926 13.5 13.5 14.5074 13.5 15.75C13.5 16.9926 12.4926 18 11.25 18C10.0074 18 9 16.9926 9 15.75Z" fill="#956B8A"/>
<path d="M15.75 15.75C15.75 14.5074 16.7574 13.5 18 13.5C19.2426 13.5 20.25 14.5074 20.25 15.75C20.25 16.9926 19.2426 18 18 18C16.7574 18 15.75 16.9926 15.75 15.75Z" fill="#956B8A"/>
</svg>
