<svg width="54" height="54" viewBox="0 0 54 54" fill="none" xmlns="http://www.w3.org/2000/svg">
<path d="M40.5 45L49.104 36.396C49.3572 36.1431 49.4997 35.7999 49.5 35.442V23.625C49.5 22.7299 49.1444 21.8714 48.5115 21.2385C47.8785 20.6056 47.0201 20.25 46.125 20.25C45.2299 20.25 44.3715 20.6056 43.7385 21.2385C43.1056 21.8714 42.75 22.7299 42.75 23.625V33.75" stroke="#956B8A" stroke-width="3.375" stroke-linecap="round" stroke-linejoin="round"/>
<path d="M40.5 36L42.4305 34.0695C42.5319 33.9682 42.6124 33.8479 42.6672 33.7155C42.722 33.583 42.7502 33.4411 42.75 33.2977C42.7497 33.0954 42.6931 32.8972 42.5866 32.7251C42.4802 32.5531 42.3279 32.414 42.147 32.3235L41.1502 31.8263C40.3058 31.404 39.3499 31.2581 38.418 31.4091C37.486 31.5601 36.6251 32.0005 35.9572 32.6678L33.9435 34.6815C33.0995 35.5252 32.6253 36.6696 32.625 37.863V45M13.5 45L4.896 36.396C4.64275 36.1431 4.50032 35.7999 4.5 35.442V23.625C4.5 22.7299 4.85558 21.8714 5.48851 21.2385C6.12145 20.6056 6.97989 20.25 7.875 20.25C8.77011 20.25 9.62855 20.6056 10.2615 21.2385C10.8944 21.8714 11.25 22.7299 11.25 23.625V33.75" stroke="#956B8A" stroke-width="3.375" stroke-linecap="round" stroke-linejoin="round"/>
<path d="M13.5 36L11.5695 34.0695C11.4682 33.9681 11.3878 33.8478 11.333 33.7154C11.2782 33.583 11.25 33.4411 11.25 33.2977C11.25 32.886 11.484 32.5103 11.853 32.3235L12.8497 31.8263C13.6942 31.404 14.6501 31.2581 15.582 31.4091C16.514 31.5601 17.3749 32.0005 18.0428 32.6678L20.0565 34.6815C20.9005 35.5252 21.3747 36.6696 21.375 37.863V45M30.7507 27H23.2493V21.7507H18V14.2493H23.2493V9H30.7507V14.2493H36V21.7507H30.7507V27Z" stroke="#956B8A" stroke-width="3.375" stroke-linecap="round" stroke-linejoin="round"/>
</svg>
