<svg width="11" height="18" viewBox="0 0 11 18" fill="none" xmlns="http://www.w3.org/2000/svg">
<path fill-rule="evenodd" clip-rule="evenodd" d="M9.94247 8.05753C10.1924 8.30756 10.3329 8.64664 10.3329 9.00019C10.3329 9.35375 10.1924 9.69282 9.94247 9.94286L2.39981 17.4855C2.27681 17.6129 2.12968 17.7145 1.96701 17.7843C1.80434 17.8542 1.62938 17.891 1.45234 17.8925C1.2753 17.8941 1.09973 17.8603 0.935868 17.7933C0.772006 17.7262 0.623136 17.6272 0.497946 17.5021C0.372756 17.3769 0.273751 17.228 0.20671 17.0641C0.139669 16.9003 0.105934 16.7247 0.107472 16.5477C0.109011 16.3706 0.145792 16.1957 0.215671 16.033C0.28555 15.8703 0.387125 15.7232 0.514472 15.6002L7.11447 9.00019L0.514472 2.40019C0.271595 2.14872 0.137203 1.81192 0.14024 1.46233C0.143278 1.11273 0.283503 0.778313 0.530714 0.531102C0.777925 0.283891 1.11234 0.143665 1.46194 0.140627C1.81153 0.137589 2.14834 0.271982 2.39981 0.514859L9.94247 8.05753Z" fill="#1C2135"/>
</svg>
