<svg width="22" height="22" viewBox="0 0 22 22" fill="none" xmlns="http://www.w3.org/2000/svg">
<path d="M16.6233 4.81161H14.7802V3.47503C14.7802 3.22632 14.5615 2.989 14.3047 3.00039C14.1792 3.00259 14.0596 3.0533 13.9709 3.14184C13.8822 3.23038 13.8313 3.34984 13.8291 3.47503V4.81161H7.1718V3.47503C7.1718 3.22632 6.95306 2.989 6.69628 3.00039C6.57085 3.00259 6.45117 3.0533 6.36247 3.14184C6.27376 3.23038 6.22295 3.34984 6.22076 3.47503V4.81161H4.37762C3.74727 4.81236 3.14295 5.06264 2.69722 5.50753C2.2515 5.95243 2.00076 6.55562 2 7.1848V17.6268C2 18.9359 3.06708 20 4.37762 20H16.6224C17.9339 20 19 18.9359 19 17.6268V7.1848C18.9995 6.55571 18.749 5.95251 18.3034 5.50759C17.8578 5.06267 17.2536 4.81236 16.6233 4.81161ZM4.37762 5.76088H6.22076V6.32285C6.22076 6.57156 6.4395 6.80888 6.69628 6.79749C6.95401 6.7861 7.1718 6.58865 7.1718 6.32285V5.76088H13.8291V6.32285C13.8291 6.57156 14.0479 6.80888 14.3047 6.79749C14.5624 6.7861 14.7802 6.58865 14.7802 6.32285V5.76088H16.6224C17.4089 5.76088 18.049 6.39975 18.049 7.1848V8.68845H2.95105V7.1848C2.95105 6.39975 3.5911 5.76088 4.37762 5.76088ZM16.6233 19.0507H4.37762C3.5911 19.0507 2.95105 18.4119 2.95105 17.6268V9.63772H18.049V17.6268C18.049 18.0043 17.8988 18.3663 17.6315 18.6333C17.3641 18.9003 17.0015 19.0505 16.6233 19.0507Z" fill="#956B8A"/>
</svg>
