<svg width="14" height="14" viewBox="0 0 14 14" fill="none" xmlns="http://www.w3.org/2000/svg">
<path d="M1.05599 5.6739C1.22008 5.50986 1.4426 5.41771 1.67462 5.41771C1.90664 5.41771 2.12916 5.50986 2.29324 5.6739L5.38724 8.7679L11.5735 2.58077C11.6547 2.49947 11.7512 2.43498 11.8574 2.39096C11.9635 2.34694 12.0773 2.32426 12.1922 2.32422C12.3072 2.32418 12.421 2.34678 12.5272 2.39072C12.6334 2.43466 12.7299 2.49909 12.8112 2.58033C12.8925 2.66157 12.957 2.75803 13.001 2.86419C13.045 2.97036 13.0677 3.08416 13.0677 3.19909C13.0678 3.31402 13.0452 3.42783 13.0012 3.53403C12.9573 3.64022 12.8929 3.73672 12.8116 3.81802L5.38724 11.2424L1.05599 6.91115C0.891956 6.74706 0.799805 6.52454 0.799805 6.29252C0.799805 6.0605 0.891956 5.83798 1.05599 5.6739Z" fill="#956B8A"/>
</svg>
