<svg width="65" height="65" viewBox="0 0 65 65" fill="none" xmlns="http://www.w3.org/2000/svg">
<path d="M49.5624 15.4645C49.3118 15.2134 49.0142 15.0142 48.6866 14.8783C48.3589 14.7424 48.0077 14.6724 47.653 14.6724C47.2983 14.6724 46.9471 14.7424 46.6194 14.8783C46.2918 15.0142 45.9942 15.2134 45.7436 15.4645L32.4999 28.6811L19.2561 15.4374C19.0054 15.1866 18.7077 14.9877 18.3801 14.852C18.0525 14.7163 17.7014 14.6465 17.3467 14.6465C16.9921 14.6465 16.641 14.7163 16.3134 14.852C15.9858 14.9877 15.6881 15.1866 15.4374 15.4374C15.1866 15.6881 14.9877 15.9858 14.852 16.3134C14.7163 16.641 14.6465 16.9921 14.6465 17.3467C14.6465 17.7014 14.7163 18.0525 14.852 18.3801C14.9877 18.7077 15.1866 19.0054 15.4374 19.2561L28.6811 32.4999L15.4374 45.7436C15.1866 45.9944 14.9877 46.292 14.852 46.6196C14.7163 46.9473 14.6465 47.2984 14.6465 47.653C14.6465 48.0076 14.7163 48.3587 14.852 48.6863C14.9877 49.014 15.1866 49.3116 15.4374 49.5624C15.6881 49.8131 15.9858 50.012 16.3134 50.1477C16.641 50.2834 16.9921 50.3533 17.3467 50.3533C17.7014 50.3533 18.0525 50.2834 18.3801 50.1477C18.7077 50.012 19.0054 49.8131 19.2561 49.5624L32.4999 36.3186L45.7436 49.5624C45.9944 49.8131 46.292 50.012 46.6196 50.1477C46.9473 50.2834 47.2984 50.3533 47.653 50.3533C48.0076 50.3533 48.3587 50.2834 48.6863 50.1477C49.014 50.012 49.3116 49.8131 49.5624 49.5624C49.8131 49.3116 50.012 49.014 50.1477 48.6863C50.2834 48.3587 50.3533 48.0076 50.3533 47.653C50.3533 47.2984 50.2834 46.9473 50.1477 46.6196C50.012 46.292 49.8131 45.9944 49.5624 45.7436L36.3186 32.4999L49.5624 19.2561C50.5915 18.227 50.5915 16.4936 49.5624 15.4645Z" fill="#1C2135"/>
</svg>
