<svg width="29" height="29" viewBox="0 0 29 29" fill="none" xmlns="http://www.w3.org/2000/svg">
<path d="M9.62419 7.49441C9.39962 7.46172 9.17063 7.50692 8.97532 7.62249H8.9584C8.50528 7.88833 8.09686 8.22303 7.74886 8.61695C7.45886 8.95166 7.30178 9.28999 7.26069 9.61624C7.23653 9.80958 7.25344 10.0053 7.31023 10.1902L7.33198 10.2023C7.65823 11.1605 8.08357 12.0825 8.60315 12.95C9.27311 14.1686 10.0976 15.2956 11.0561 16.3032L11.0851 16.3442L11.131 16.3781L11.1588 16.4107L11.1926 16.4397C12.2037 17.4011 13.3333 18.2295 14.5542 18.9047C15.9498 19.6647 16.7969 20.0236 17.3056 20.1735V20.1807C17.4542 20.2266 17.5895 20.2472 17.7261 20.2472C18.1593 20.2151 18.5694 20.039 18.8909 19.7469C19.2836 19.3989 19.6159 18.9893 19.8745 18.5337V18.5253C20.1174 18.0661 20.0352 17.6335 19.6848 17.3399C18.9809 16.7249 18.2198 16.1787 17.4119 15.7087C16.8706 15.415 16.3208 15.5927 16.0984 15.8899L15.6236 16.4892C15.3795 16.7865 14.9372 16.7454 14.9372 16.7454L14.9252 16.7527C11.6252 15.9105 10.7443 12.5694 10.7443 12.5694C10.7443 12.5694 10.7032 12.1151 11.0089 11.8831L11.6034 11.4046C11.8886 11.1726 12.0868 10.624 11.7811 10.0827C11.3142 9.274 10.769 8.51313 10.1534 7.81099C10.0192 7.64575 9.8309 7.5332 9.62178 7.4932L9.62419 7.49441ZM15.2007 6.04199C15.0404 6.04199 14.8867 6.10565 14.7734 6.21895C14.6601 6.33225 14.5965 6.48592 14.5965 6.64616C14.5965 6.80639 14.6601 6.96007 14.7734 7.07337C14.8867 7.18667 15.0404 7.25033 15.2007 7.25033C16.728 7.25033 17.9967 7.74937 19.0009 8.70637C19.5168 9.22958 19.9192 9.84945 20.1826 10.5285C20.4472 11.2088 20.5681 11.935 20.5367 12.6625C20.5299 12.8227 20.5871 12.979 20.6957 13.0971C20.8042 13.2152 20.9552 13.2853 21.1154 13.292C21.2757 13.2987 21.432 13.2415 21.5501 13.133C21.6681 13.0244 21.7383 12.8734 21.745 12.7132C21.7825 11.8184 21.6339 10.9256 21.3088 10.0911C20.9822 9.2527 20.487 8.49022 19.8539 7.85087L19.8419 7.83878C18.5961 6.64858 17.0204 6.04199 15.2007 6.04199Z" fill="#956B8A"/>
<path d="M15.1584 8.02855C14.9981 8.02855 14.8445 8.09221 14.7312 8.20551C14.6179 8.31881 14.5542 8.47248 14.5542 8.63272C14.5542 8.79295 14.6179 8.94663 14.7312 9.05993C14.8445 9.17323 14.9981 9.23689 15.1584 9.23689H15.1789C16.2809 9.31543 17.0832 9.68276 17.6451 10.2857C18.2215 10.9068 18.5199 11.6789 18.497 12.6335C18.4933 12.7937 18.5534 12.9489 18.6641 13.0648C18.7748 13.1807 18.927 13.2479 19.0873 13.2516C19.2475 13.2553 19.4026 13.1951 19.5185 13.0844C19.6345 12.9737 19.7016 12.8215 19.7053 12.6613C19.7343 11.4083 19.3307 10.3268 18.5308 9.46405V9.46164C17.7128 8.58439 16.5902 8.12039 15.2393 8.02976L15.2188 8.02734L15.1584 8.02855Z" fill="#956B8A"/>
<path d="M15.1358 10.0521C15.0549 10.045 14.9735 10.0542 14.8963 10.0793C14.8191 10.1043 14.7477 10.1447 14.6864 10.1979C14.6251 10.2512 14.5752 10.3162 14.5396 10.3891C14.5041 10.4621 14.4836 10.5415 14.4793 10.6225C14.4751 10.7036 14.4873 10.7847 14.5151 10.8609C14.5429 10.9372 14.5858 11.0071 14.6412 11.0664C14.6966 11.1257 14.7634 11.1732 14.8375 11.2062C14.9117 11.2391 14.9918 11.2568 15.073 11.2581C15.578 11.2846 15.9007 11.4369 16.1037 11.6411C16.3079 11.8465 16.4601 12.1764 16.4879 12.6924C16.4894 12.7734 16.5072 12.8534 16.5403 12.9274C16.5734 13.0015 16.621 13.0681 16.6803 13.1234C16.7397 13.1786 16.8096 13.2213 16.8858 13.249C16.962 13.2767 17.043 13.2887 17.124 13.2844C17.205 13.2801 17.2843 13.2596 17.3571 13.224C17.43 13.1884 17.495 13.1385 17.5481 13.0773C17.6013 13.016 17.6416 12.9447 17.6666 12.8676C17.6917 12.7905 17.7009 12.7091 17.6938 12.6283C17.6552 11.9033 17.428 11.2629 16.9628 10.7916C16.4952 10.3204 15.8584 10.0908 15.1358 10.0521Z" fill="#956B8A"/>
<path fill-rule="evenodd" clip-rule="evenodd" d="M8.53906 2.88094C12.3841 2.02146 16.3714 2.02146 20.2164 2.88094L20.626 2.97157C21.75 3.22284 22.7823 3.78082 23.6083 4.58351C24.4342 5.3862 25.0214 6.40217 25.3047 7.51852C26.2807 11.3645 26.2807 15.3934 25.3047 19.2394C25.0214 20.3557 24.4342 21.3717 23.6083 22.1744C22.7823 22.9771 21.75 23.535 20.626 23.7863L20.2152 23.8769C17.807 24.4155 15.3359 24.6184 12.8721 24.4799L9.66644 27.3485C9.54558 27.4567 9.39789 27.5305 9.23879 27.5621C9.07969 27.5938 8.91501 27.5822 8.76194 27.5285C8.60886 27.4748 8.47301 27.381 8.36855 27.2568C8.2641 27.1327 8.19487 26.9829 8.1681 26.8229L7.63765 23.6546C6.62045 23.3381 5.70142 22.766 4.9684 21.993C4.23538 21.22 3.71285 20.2719 3.45077 19.2394C2.47474 15.3934 2.47474 11.3645 3.45077 7.51852C3.73403 6.40217 4.32125 5.3862 5.14719 4.58351C5.97313 3.78082 7.00545 3.22284 8.12944 2.97157L8.53906 2.88094ZM19.8213 4.64873C16.2365 3.84737 12.519 3.84737 8.93419 4.64873L8.52335 4.74057C7.72672 4.91898 6.99513 5.31471 6.40983 5.88381C5.82452 6.4529 5.4084 7.17309 5.20769 7.9644C4.30592 11.5178 4.30592 15.2401 5.20769 18.7935C5.4085 19.5849 5.8248 20.3052 6.41033 20.8743C6.99587 21.4435 7.72771 21.8391 8.52456 22.0173L8.63331 22.0415C8.80924 22.0808 8.96943 22.1717 9.09341 22.3026C9.21739 22.4335 9.29953 22.5984 9.32931 22.7761L9.68456 24.9004L11.9466 22.8764C12.0369 22.7954 12.1426 22.7333 12.2574 22.6938C12.3722 22.6544 12.4937 22.6384 12.6148 22.6469C15.0303 22.8182 17.4579 22.6371 19.8213 22.1091L20.2309 22.0173C21.0277 21.8391 21.7596 21.4435 22.3451 20.8743C22.9307 20.3052 23.347 19.5849 23.5478 18.7935C24.4492 15.241 24.4492 11.5181 23.5478 7.9644C23.347 7.17294 22.9307 6.45264 22.3451 5.88353C21.7596 5.31442 21.0277 4.91878 20.2309 4.74057L19.8213 4.64873Z" fill="#956B8A"/>
</svg>
