<svg width="34" height="34" viewBox="0 0 34 34" fill="none" xmlns="http://www.w3.org/2000/svg">
<path d="M30.3131 14.3753L23.9381 20.7503C23.7871 20.891 23.5873 20.9677 23.3808 20.964C23.1744 20.9604 22.9774 20.8768 22.8314 20.7308C22.6854 20.5848 22.6018 20.3878 22.5981 20.1813C22.5945 19.9749 22.6711 19.7751 22.8119 19.624L27.8255 14.609H21.9141C19.2631 14.6068 16.6868 15.4865 14.5908 17.1096C12.4948 18.7326 10.9982 21.0068 10.3368 23.5739C10.284 23.7785 10.152 23.9538 9.96992 24.0612C9.78785 24.1685 9.57059 24.1991 9.36594 24.1463C9.16129 24.0935 8.98601 23.9615 8.87866 23.7794C8.77131 23.5973 8.74068 23.3801 8.79352 23.1754C9.54326 20.2662 11.2393 17.689 13.6147 15.8496C15.9901 14.0102 18.9098 13.0131 21.9141 13.0153H27.8282L22.8119 8.00028C22.6711 7.84922 22.5945 7.64942 22.5981 7.44297C22.6018 7.23653 22.6854 7.03956 22.8314 6.89356C22.9774 6.74755 23.1744 6.66392 23.3808 6.66028C23.5873 6.65664 23.7871 6.73327 23.9381 6.87403L30.3131 13.249C30.4624 13.3984 30.5462 13.601 30.5462 13.8122C30.5462 14.0233 30.4624 14.2259 30.3131 14.3753ZM25.5 27.8903H5.3125C5.24205 27.8903 5.17449 27.8623 5.12467 27.8125C5.07486 27.7627 5.04688 27.6951 5.04688 27.6247V11.6872C5.04688 11.4758 4.96292 11.2731 4.81348 11.1237C4.66403 10.9742 4.46134 10.8903 4.25 10.8903C4.03866 10.8903 3.83597 10.9742 3.68652 11.1237C3.53708 11.2731 3.45312 11.4758 3.45312 11.6872V27.6247C3.45312 28.1178 3.64902 28.5907 3.99772 28.9394C4.34642 29.2881 4.81936 29.484 5.3125 29.484H25.5C25.7113 29.484 25.914 29.4001 26.0635 29.2506C26.2129 29.1012 26.2969 28.8985 26.2969 28.6872C26.2969 28.4758 26.2129 28.2731 26.0635 28.1237C25.914 27.9742 25.7113 27.8903 25.5 27.8903Z" fill="#9797A1"/>
</svg>
