<svg width="29" height="29" viewBox="0 0 29 29" fill="none" xmlns="http://www.w3.org/2000/svg">
<path fill-rule="evenodd" clip-rule="evenodd" d="M6.99401 16.9413C7.04593 16.9586 7.09932 16.9711 7.15351 16.9787C7.49537 17.7843 7.83532 18.5906 8.17334 19.3978C8.78113 20.8502 9.39376 22.3461 9.52788 22.7763C9.69584 23.3056 9.87226 23.6656 10.0656 23.9121C10.1659 24.0378 10.2807 24.149 10.416 24.2336C10.4865 24.2777 10.5619 24.3134 10.6408 24.3399C11.0274 24.4849 11.3803 24.4245 11.6014 24.3508C11.7311 24.3065 11.8546 24.2456 11.9687 24.1695L11.9748 24.1671L15.3895 22.038L19.3347 25.0613C19.3927 25.106 19.4555 25.1434 19.5232 25.1736C19.9969 25.3791 20.4561 25.4516 20.8886 25.3936C21.3188 25.3331 21.6608 25.1531 21.9157 24.9489C22.2085 24.7129 22.4419 24.4117 22.5972 24.0692L22.6081 24.0426L22.6117 24.033L22.6141 24.0281V24.0257L22.6153 24.0245C22.6363 23.9725 22.6525 23.9187 22.6637 23.8638L26.2645 5.7086C26.2759 5.65048 26.2815 5.5914 26.2814 5.53218C26.2814 5.00051 26.0808 4.49422 25.6108 4.18851C25.2072 3.92631 24.7589 3.91422 24.475 3.93597C24.1705 3.96014 23.8877 4.03506 23.698 4.09547C23.5918 4.12913 23.487 4.16702 23.3838 4.20906L23.3706 4.2151L3.17447 12.1369L3.17205 12.1381C3.10372 12.1633 3.0364 12.1911 2.97026 12.2215C2.81011 12.2935 2.65648 12.3792 2.51109 12.4777C2.2368 12.665 1.60484 13.1797 1.71238 14.0304C1.79697 14.7071 2.26097 15.1239 2.54493 15.3245C2.69959 15.4345 2.84701 15.513 2.95576 15.565C3.00409 15.5891 3.10801 15.6302 3.15272 15.6496L3.1648 15.6532L6.99401 16.9413ZM24.0774 5.8826H24.075C24.0646 5.88722 24.0541 5.89165 24.0436 5.89589L3.82334 13.8286C3.81294 13.8328 3.80247 13.8368 3.79193 13.8407L3.77984 13.8443C3.74291 13.8588 3.70662 13.8749 3.67109 13.8926C3.70473 13.9119 3.73942 13.9292 3.77501 13.9446L7.57159 15.223C7.63944 15.2459 7.70434 15.2767 7.76493 15.3148L20.3038 7.97422L20.3159 7.96818C20.3646 7.93858 20.4146 7.91117 20.4657 7.88601C20.5527 7.84131 20.6917 7.77606 20.8488 7.72772C20.9575 7.69389 21.2801 7.59843 21.6281 7.71081C21.8127 7.76899 21.9772 7.8779 22.1029 8.02512C22.2285 8.17233 22.3102 8.35191 22.3386 8.54335C22.3836 8.71101 22.3849 8.8874 22.3423 9.05568C22.2577 9.38797 22.0257 9.64656 21.813 9.84472C21.6318 10.0139 19.2816 12.2807 16.9628 14.5186L13.8054 17.5636L13.2435 18.1073L20.3388 23.5472C20.4346 23.5874 20.5386 23.604 20.6421 23.5956C20.6943 23.5885 20.7433 23.5667 20.7835 23.5327C20.8325 23.4914 20.8745 23.4424 20.908 23.3877L20.9104 23.3865L24.4025 5.77747C24.2925 5.80393 24.1846 5.83867 24.0798 5.88139L24.0774 5.8826ZM13.8537 20.8587L12.4376 19.7736L12.0944 21.9546L13.8537 20.8587ZM11.1386 17.6203L12.5463 16.261L15.7037 13.2136L16.8794 12.0801L9.00105 16.6923L9.04334 16.7914C9.54022 17.9652 10.0316 19.1414 10.5175 20.3198L10.8595 18.1448C10.8904 17.943 10.9888 17.759 11.1386 17.6203Z" fill="#956B8A"/>
</svg>
