<svg width="196" height="55" viewBox="0 0 196 55" fill="none" xmlns="http://www.w3.org/2000/svg">
<g clip-path="url(#clip0_501_429)">
<path d="M80.7742 24.6282C80.7742 25.8094 80.5632 26.8547 80.1466 27.7641C79.73 28.6736 79.1236 29.4314 78.3326 30.0482C77.5415 30.6649 76.5818 31.1301 75.448 31.4437C74.3194 31.7573 73.038 31.9141 71.6141 31.9141H63.5984V38.3272H57.2544V16.668H71.4559C72.8903 16.668 74.1823 16.8195 75.3372 17.1279C76.4921 17.4363 77.4677 17.8753 78.2693 18.4503C79.0761 19.0304 79.6931 19.736 80.1255 20.5775C80.558 21.419 80.7742 22.365 80.7742 23.426V24.6282ZM74.33 23.8546C74.33 22.8981 74.0399 22.2082 73.4546 21.7692C72.8745 21.3354 71.9622 21.1158 70.7176 21.1158H63.609V27.4714H70.5014C71.746 27.4714 72.6899 27.2258 73.3491 26.7397C74.003 26.2536 74.33 25.5062 74.33 24.5079V23.8494V23.8546Z" fill="#1C2135"/>
<path d="M84.2969 38.3272V16.6836L90.6673 16.668V33.8793H103.408V38.3324H84.2969V38.3272Z" fill="#1C2135"/>
<path d="M130.261 16.668V28.9819C130.261 30.4141 130.023 31.7312 129.543 32.9385C129.069 34.1459 128.325 35.186 127.313 36.0536C126.3 36.9212 125.013 37.6007 123.447 38.0868C121.881 38.5728 120.014 38.8185 117.836 38.8185C115.532 38.8185 113.596 38.5676 112.014 38.0763C110.432 37.585 109.156 36.8951 108.186 36.0222C107.215 35.1494 106.509 34.1145 106.076 32.9176C105.644 31.7207 105.428 30.4141 105.428 29.0029V16.668H111.798V28.9924C111.798 29.7869 111.909 30.5081 112.136 31.1667C112.362 31.8252 112.721 32.3897 113.211 32.8549C113.702 33.3253 114.329 33.6859 115.094 33.942C115.859 34.1981 116.782 34.3288 117.863 34.3288C118.944 34.3288 119.893 34.1929 120.658 33.9264C121.422 33.6598 122.05 33.2887 122.535 32.8183C123.02 32.3479 123.373 31.7782 123.59 31.1196C123.806 30.4611 123.917 29.745 123.917 28.9715V16.668H130.261Z" fill="#1C2135"/>
<path d="M146.704 26.5206H159.254L159.196 28.9092C159.196 29.0137 159.196 29.1025 159.191 29.1809C159.186 29.2593 159.181 29.3482 159.17 29.4527C159.075 30.6444 158.743 31.8047 158.173 32.9337C157.604 34.0626 156.802 35.0609 155.769 35.9338C154.735 36.8066 153.469 37.507 151.977 38.0297C150.485 38.5523 148.766 38.8189 146.82 38.8189C144.578 38.8189 142.617 38.5732 140.934 38.0819C139.252 37.5906 137.855 36.8955 136.737 35.9965C135.619 35.0975 134.785 34.0208 134.232 32.756C133.678 31.4911 133.404 30.0852 133.404 28.5381V26.4631C133.404 24.8951 133.683 23.4787 134.248 22.2086C134.812 20.9385 135.656 19.8566 136.774 18.9681C137.897 18.0743 139.294 17.3896 140.971 16.9088C142.648 16.4279 144.599 16.1875 146.835 16.1875C148.586 16.1875 150.168 16.3757 151.582 16.7468C152.99 17.1178 154.218 17.6614 155.257 18.3722C156.296 19.0831 157.15 19.9559 157.815 20.9908C158.479 22.0257 158.943 23.2069 159.218 24.5345H153.048C152.736 23.2173 152.051 22.2086 150.98 21.5135C149.91 20.8183 148.518 20.4681 146.804 20.4681C145.823 20.4681 144.9 20.5883 144.046 20.834C143.186 21.0796 142.437 21.4403 141.799 21.9316C141.161 22.4177 140.655 23.0292 140.291 23.7714C139.927 24.5135 139.743 25.3759 139.743 26.369V28.674C139.743 29.6461 139.927 30.5033 140.291 31.235C140.655 31.972 141.156 32.5835 141.794 33.0748C142.432 33.5661 143.176 33.932 144.035 34.1776C144.895 34.4233 145.812 34.5435 146.793 34.5435C147.89 34.5435 148.845 34.4285 149.651 34.209C150.458 33.9895 151.133 33.6811 151.671 33.2995C152.209 32.918 152.631 32.4737 152.926 31.9615C153.227 31.4493 153.411 30.9057 153.491 30.3204H146.704V26.5258V26.5206Z" fill="#1C2135"/>
<path d="M163.225 38.3272V16.668H169.595V38.3272H163.225Z" fill="#1C2135"/>
<path d="M187.336 21.1211V38.3324H180.965V21.1211H172.312V16.668H196V21.1211H187.336Z" fill="#1C2135"/>
<path d="M40.2948 0V22.4955C40.2948 31.6003 32.8433 38.9855 23.6569 38.9855L11.955 27.3876H20.1922C24.8329 27.3876 28.5929 23.661 28.5929 19.0616V11.5979H11.7019V55L0 43.4021V0H40.2948Z" fill="#D4BD87"/>
</g>
<defs>
<clipPath id="clip0_501_429">
<rect width="196" height="55" fill="white"/>
</clipPath>
</defs>
</svg>
