<svg width="29" height="29" viewBox="0 0 29 29" fill="none" xmlns="http://www.w3.org/2000/svg">
<path d="M4.83317 24.1663C4.16859 24.1663 3.59946 23.9295 3.1258 23.4558C2.65213 22.9822 2.4157 22.4135 2.41651 21.7497V7.24968C2.41651 6.58509 2.65334 6.01597 3.12701 5.5423C3.60067 5.06863 4.16939 4.8322 4.83317 4.83301H24.1665C24.8311 4.83301 25.4002 5.06984 25.8739 5.54351C26.3475 6.01718 26.584 6.5859 26.5832 7.24968V21.7497C26.5832 22.4143 26.3463 22.9834 25.8727 23.4571C25.399 23.9307 24.8303 24.1672 24.1665 24.1663H4.83317ZM14.4998 15.708L4.83317 9.66634V21.7497H24.1665V9.66634L14.4998 15.708ZM14.4998 13.2913L24.1665 7.24968H4.83317L14.4998 13.2913ZM4.83317 9.66634V7.24968V21.7497V9.66634Z" fill="#956B8A"/>
</svg>
