<svg width="45" height="45" viewBox="0 0 45 45" fill="none" xmlns="http://www.w3.org/2000/svg">
<path d="M5.625 24.375V9.375C5.625 8.34375 5.9925 7.46063 6.7275 6.72563C7.4625 5.99063 8.345 5.62375 9.375 5.625H20.625V24.375H5.625ZM24.375 5.625H35.625C36.6563 5.625 37.5394 5.9925 38.2744 6.7275C39.0094 7.4625 39.3763 8.345 39.375 9.375V16.875H24.375V5.625ZM24.375 39.375V20.625H39.375V35.625C39.375 36.6563 39.0075 37.5394 38.2725 38.2744C37.5375 39.0094 36.655 39.3763 35.625 39.375H24.375ZM5.625 28.125H20.625V39.375H9.375C8.34375 39.375 7.46063 39.0075 6.72563 38.2725C5.99063 37.5375 5.62375 36.655 5.625 35.625V28.125ZM9.375 20.625H16.875V9.375H9.375V20.625ZM28.125 13.125H35.625V9.375H28.125V13.125ZM28.125 24.375V35.625H35.625V24.375H28.125ZM9.375 31.875V35.625H16.875V31.875H9.375Z" fill="#B45C9B"/>
</svg>
