<svg width="45" height="45" viewBox="0 0 45 45" fill="none" xmlns="http://www.w3.org/2000/svg">
<path d="M18.75 22.5C16.6875 22.5 14.9219 21.7656 13.4531 20.2969C11.9844 18.8281 11.25 17.0625 11.25 15C11.25 12.9375 11.9844 11.1719 13.4531 9.70313C14.9219 8.23438 16.6875 7.5 18.75 7.5C20.8125 7.5 22.5781 8.23438 24.0469 9.70313C25.5156 11.1719 26.25 12.9375 26.25 15C26.25 17.0625 25.5156 18.8281 24.0469 20.2969C22.5781 21.7656 20.8125 22.5 18.75 22.5ZM3.75 33.75V32.25C3.75 31.2188 4.01563 30.25 4.54688 29.3438C5.07813 28.4375 5.8125 27.75 6.75 27.2812C8.34375 26.4688 10.1406 25.7812 12.1406 25.2188C14.1406 24.6562 16.3438 24.375 18.75 24.375H19.4063C19.5938 24.375 19.7813 24.4062 19.9688 24.4688C19.7188 25.0312 19.5075 25.6175 19.335 26.2275C19.1625 26.8375 19.03 27.47 18.9375 28.125H18.75C16.5313 28.125 14.5394 28.4062 12.7744 28.9688C11.0094 29.5312 9.56375 30.0938 8.4375 30.6562C8.15625 30.8125 7.92938 31.0313 7.75688 31.3125C7.58438 31.5938 7.49875 31.9063 7.5 32.25V33.75H19.3125C19.5 34.4062 19.75 35.055 20.0625 35.6963C20.375 36.3375 20.7188 36.9387 21.0938 37.5H7.5C6.46875 37.5 5.58563 37.1325 4.85063 36.3975C4.11563 35.6625 3.74875 34.78 3.75 33.75ZM29.7188 37.875L29.4375 36.5625C29.0625 36.4062 28.7113 36.2419 28.3838 36.0694C28.0563 35.8969 27.72 35.6862 27.375 35.4375L26.0156 35.8594C25.6094 35.9844 25.2113 35.9688 24.8213 35.8125C24.4313 35.6562 24.1263 35.4063 23.9063 35.0625L23.5313 34.4062C23.3125 34.0312 23.2344 33.625 23.2969 33.1875C23.3594 32.75 23.5625 32.3906 23.9063 32.1094L24.9375 31.2188C24.875 30.7812 24.8438 30.375 24.8438 30C24.8438 29.625 24.875 29.2188 24.9375 28.7812L23.9063 27.8906C23.5625 27.6094 23.3594 27.2575 23.2969 26.835C23.2344 26.4125 23.3125 26.0144 23.5313 25.6406L23.9531 24.9375C24.1719 24.5938 24.4688 24.3438 24.8438 24.1875C25.2188 24.0312 25.6094 24.0156 26.0156 24.1406L27.375 24.5625C27.7188 24.3125 28.0544 24.1012 28.3819 23.9288C28.7094 23.7563 29.0613 23.5925 29.4375 23.4375L29.7188 22.0781C29.8125 21.6406 30.0238 21.2887 30.3525 21.0225C30.6813 20.7562 31.0638 20.6237 31.5 20.625H32.25C32.6875 20.625 33.0706 20.7656 33.3994 21.0469C33.7281 21.3281 33.9388 21.6875 34.0313 22.125L34.3125 23.4375C34.6875 23.5938 35.0388 23.7656 35.3663 23.9531C35.6938 24.1406 36.03 24.375 36.375 24.6562L37.6406 24.2344C38.0781 24.0781 38.5 24.0781 38.9063 24.2344C39.3125 24.3906 39.625 24.6562 39.8438 25.0312L40.2188 25.6875C40.4375 26.0625 40.5156 26.4688 40.4531 26.9062C40.3906 27.3438 40.1875 27.7031 39.8438 27.9844L38.8125 28.875C38.875 29.25 38.9063 29.6406 38.9063 30.0469C38.9063 30.4531 38.875 30.8438 38.8125 31.2188L39.8438 32.1094C40.1875 32.3906 40.3906 32.7425 40.4531 33.165C40.5156 33.5875 40.4375 33.9856 40.2188 34.3594L39.7969 35.0625C39.5781 35.4063 39.2813 35.6562 38.9063 35.8125C38.5313 35.9688 38.1406 35.9844 37.7344 35.8594L36.375 35.4375C36.0313 35.6875 35.695 35.8981 35.3663 36.0694C35.0375 36.2406 34.6863 36.405 34.3125 36.5625L34.0313 37.9219C33.9375 38.3594 33.7269 38.7113 33.3994 38.9775C33.0719 39.2437 32.6888 39.3762 32.25 39.375H31.5C31.0625 39.375 30.6794 39.2344 30.3506 38.9531C30.0219 38.6719 29.8113 38.3125 29.7188 37.875ZM31.875 33.75C32.9063 33.75 33.7894 33.3825 34.5244 32.6475C35.2594 31.9125 35.6263 31.03 35.625 30C35.625 28.9688 35.2575 28.0856 34.5225 27.3506C33.7875 26.6156 32.905 26.2488 31.875 26.25C30.8438 26.25 29.9606 26.6175 29.2256 27.3525C28.4906 28.0875 28.1238 28.97 28.125 30C28.125 31.0312 28.4925 31.9144 29.2275 32.6494C29.9625 33.3844 30.845 33.7512 31.875 33.75ZM18.75 18.75C19.7813 18.75 20.6644 18.3825 21.3994 17.6475C22.1344 16.9125 22.5013 16.03 22.5 15C22.5 13.9688 22.1325 13.0856 21.3975 12.3506C20.6625 11.6156 19.78 11.2487 18.75 11.25C17.7188 11.25 16.8356 11.6175 16.1006 12.3525C15.3656 13.0875 14.9988 13.97 15 15C15 16.0312 15.3675 16.9144 16.1025 17.6494C16.8375 18.3844 17.72 18.7513 18.75 18.75Z" fill="#B45C9B"/>
</svg>
