<svg width="45" height="45" viewBox="0 0 45 45" fill="none" xmlns="http://www.w3.org/2000/svg">
<path d="M30.9375 22.5C30.9375 21.225 30.825 19.9875 30.675 18.75H37.0125C37.3125 19.95 37.5 21.2062 37.5 22.5C37.5 23.1937 37.4437 23.8687 37.35 24.525C38.6437 24.7125 39.8438 25.125 40.95 25.725C41.1375 24.675 41.25 23.6062 41.25 22.5C41.25 12.1875 32.8125 3.75 22.5 3.75C12.1312 3.75 3.75 12.1875 3.75 22.5C3.75 32.8125 12.1875 41.25 22.5 41.25C23.6063 41.25 24.675 41.1375 25.725 40.95C24.8344 39.3167 24.3701 37.4853 24.375 35.625C24.375 35.0812 24.4312 34.5562 24.5062 34.0312C23.9062 35.2125 23.25 36.3562 22.5 37.425C20.9438 35.175 19.6875 32.6812 18.9188 30H25.8938C27.0199 28.0432 28.7132 26.4741 30.75 25.5C30.8625 24.5062 30.9375 23.5125 30.9375 22.5ZM22.5 7.55625C24.0562 9.80625 25.3125 12.3187 26.0812 15H18.9188C19.6875 12.3187 20.9438 9.80625 22.5 7.55625ZM7.9875 26.25C7.6875 25.05 7.5 23.7937 7.5 22.5C7.5 21.2062 7.6875 19.95 7.9875 18.75H14.325C14.175 19.9875 14.0625 21.225 14.0625 22.5C14.0625 23.775 14.175 25.0125 14.325 26.25H7.9875ZM9.525 30H15C15.6562 32.3437 16.5 34.5937 17.625 36.675C14.2099 35.4969 11.3341 33.127 9.525 30ZM15 15H9.525C11.3229 11.8635 14.2027 9.49029 17.625 8.325C16.5 10.4062 15.6562 12.6562 15 15ZM26.8875 26.25H18.1125C17.925 25.0125 17.8125 23.775 17.8125 22.5C17.8125 21.225 17.925 19.9687 18.1125 18.75H26.8875C27.0562 19.9687 27.1875 21.225 27.1875 22.5C27.1875 23.775 27.0562 25.0125 26.8875 26.25ZM27.3563 8.325C30.8062 9.50625 33.675 11.8875 35.475 15H29.9438C29.3569 12.6777 28.488 10.4361 27.3563 8.325ZM42.1875 32.3437L33.2812 41.25L28.125 35.625L30.3 33.45L33.2812 36.4312L40.0125 29.7L42.1875 32.3437Z" fill="#B45C9B"/>
</svg>
