<svg width="45" height="45" viewBox="0 0 45 45" fill="none" xmlns="http://www.w3.org/2000/svg">
<path d="M39.375 22.9125C39.375 12.6188 31.3875 5.625 22.5 5.625C13.7062 5.625 5.625 12.4687 5.625 23.025C4.5 23.6625 3.75 24.8625 3.75 26.25V30C3.75 32.0625 5.4375 33.75 7.5 33.75C8.53125 33.75 9.375 32.9062 9.375 31.875V22.8562C9.375 15.675 14.9062 9.39375 22.0875 9.1875C23.845 9.13405 25.5954 9.43394 27.2349 10.0694C28.8744 10.7048 30.3697 11.6629 31.6321 12.8869C32.8945 14.1109 33.8984 15.5758 34.5843 17.1948C35.2702 18.8139 35.6241 20.5542 35.625 22.3125V35.625H22.5C21.4687 35.625 20.625 36.4688 20.625 37.5C20.625 38.5312 21.4687 39.375 22.5 39.375H35.625C37.6875 39.375 39.375 37.6875 39.375 35.625V33.3375C40.4812 32.7563 41.25 31.6125 41.25 30.2625V25.95C41.25 24.6375 40.4812 23.4937 39.375 22.9125Z" fill="#B45C9B"/>
<path d="M16.875 26.25C17.9105 26.25 18.75 25.4105 18.75 24.375C18.75 23.3395 17.9105 22.5 16.875 22.5C15.8395 22.5 15 23.3395 15 24.375C15 25.4105 15.8395 26.25 16.875 26.25Z" fill="#B45C9B"/>
<path d="M28.125 26.25C29.1605 26.25 30 25.4105 30 24.375C30 23.3395 29.1605 22.5 28.125 22.5C27.0895 22.5 26.25 23.3395 26.25 24.375C26.25 25.4105 27.0895 26.25 28.125 26.25Z" fill="#B45C9B"/>
<path d="M33.7496 20.6812C33.3026 18.0453 31.9373 15.6524 29.8955 13.9263C27.8537 12.2002 25.267 11.2522 22.5934 11.25C16.9121 11.25 10.7996 15.9562 11.2871 23.3438C13.5993 22.3976 15.6413 20.894 17.2313 18.9671C18.8213 17.0402 19.9097 14.7497 20.3996 12.3C22.8559 17.2313 27.8996 20.625 33.7496 20.6812Z" fill="#B45C9B"/>
</svg>
