<svg width="88" height="88" viewBox="0 0 88 88" fill="none" xmlns="http://www.w3.org/2000/svg">
<path d="M69.6667 21.9998H62.3333C62.3333 11.7332 54.2667 3.6665 44 3.6665C33.7333 3.6665 25.6667 11.7332 25.6667 21.9998H18.3333C14.3 21.9998 11 25.2998 11 29.3332V73.3332C11 77.3665 14.3 80.6665 18.3333 80.6665H69.6667C73.7 80.6665 77 77.3665 77 73.3332V29.3332C77 25.2998 73.7 21.9998 69.6667 21.9998ZM44 10.9998C50.2333 10.9998 55 15.7665 55 21.9998H33C33 15.7665 37.7667 10.9998 44 10.9998ZM69.6667 73.3332H18.3333V29.3332H69.6667V73.3332ZM44 43.9998C37.7667 43.9998 33 39.2332 33 32.9998H25.6667C25.6667 43.2665 33.7333 51.3332 44 51.3332C54.2667 51.3332 62.3333 43.2665 62.3333 32.9998H55C55 39.2332 50.2333 43.9998 44 43.9998Z" fill="#956B8A"/>
</svg>
