<svg width="88" height="88" viewBox="0 0 88 88" fill="none" xmlns="http://www.w3.org/2000/svg">
<path d="M44.0002 25.6668C46.0252 25.6668 47.6668 24.0252 47.6668 22.0002C47.6668 19.9751 46.0252 18.3335 44.0002 18.3335C41.9751 18.3335 40.3335 19.9751 40.3335 22.0002C40.3335 24.0252 41.9751 25.6668 44.0002 25.6668Z" fill="#956B8A"/>
<path d="M22 62.3335H66V69.6668H22V62.3335ZM36.6667 43.3768L46.904 53.6215L61.3213 39.1932L66 44.0002V29.3335H51.3333L56.1367 34.0085L46.9003 43.2448L36.6667 33.0002L22 47.6668L27.1847 52.8515L36.6667 43.3768Z" fill="#956B8A"/>
<path d="M69.6668 11.0001H57.5742C57.2141 10.458 56.8223 9.93763 56.4008 9.44179L56.3642 9.39779C53.6702 6.26004 49.8799 4.26917 45.7675 3.83179C44.5998 3.60946 43.4006 3.60946 42.2328 3.83179C38.1204 4.26917 34.3302 6.26004 31.6362 9.39779L31.5995 9.44179C31.1781 9.93644 30.7863 10.4556 30.4262 10.9965L18.3335 11.0001C15.417 11.003 12.6208 12.1629 10.5585 14.2252C8.49627 16.2874 7.33641 19.0836 7.3335 22.0001V73.3335C7.33641 76.2499 8.49627 79.0461 10.5585 81.1084C12.6208 83.1707 15.417 84.3305 18.3335 84.3335H69.6668C72.5833 84.3305 75.3795 83.1707 77.4418 81.1084C79.5041 79.0461 80.6639 76.2499 80.6668 73.3335V22.0001C80.6639 19.0836 79.5041 16.2874 77.4418 14.2252C75.3795 12.1629 72.5833 11.003 69.6668 11.0001ZM73.3335 73.3335C73.3335 74.3059 72.9472 75.2385 72.2596 75.9262C71.5719 76.6138 70.6393 77.0001 69.6668 77.0001H18.3335C17.3613 76.9991 16.4293 76.6125 15.7418 75.9251C15.0544 75.2377 14.6678 74.3056 14.6668 73.3335V22.0001C14.6678 21.028 15.0544 20.0959 15.7418 19.4085C16.4293 18.721 17.3613 18.3344 18.3335 18.3335H35.0168C35.4376 16.2613 36.5618 14.3983 38.199 13.0601C39.8362 11.7219 41.8857 10.9909 44.0002 10.9909C46.1146 10.9909 48.1641 11.7219 49.8013 13.0601C51.4385 14.3983 52.5627 16.2613 52.9835 18.3335H69.6668C70.639 18.3344 71.5711 18.721 72.2585 19.4085C72.9459 20.0959 73.3325 21.028 73.3335 22.0001V73.3335Z" fill="#956B8A"/>
</svg>
