<svg width="85" height="54" viewBox="0 0 85 54" fill="none" xmlns="http://www.w3.org/2000/svg">
<path d="M17.3536 12.4766H4.3384C1.95228 12.4766 0 10.608 0 8.32422C0 6.04043 1.95228 4.17188 4.3384 4.17188H17.3536C19.7397 4.17188 21.692 6.04043 21.692 8.32422C21.692 10.608 19.7397 12.4766 17.3536 12.4766ZM17.3536 24.9336H4.3384C1.95228 24.9336 0 26.8021 0 29.0859C0 31.3697 1.95228 33.2383 4.3384 33.2383H17.3536C19.7397 33.2383 21.692 31.3697 21.692 29.0859C21.692 26.8021 19.7397 24.9336 17.3536 24.9336ZM77.5705 51.0518L64.0347 38.0965C60.3037 40.4218 55.8351 41.7506 51.0195 41.5014C40.7375 41.0447 31.9306 33.3629 30.5423 23.6048C30.0841 20.3616 30.4314 17.0606 31.556 13.9699C32.6806 10.8792 34.5507 8.08578 37.0147 5.81649C39.4786 3.54721 42.4669 1.86598 45.7369 0.909257C49.007 -0.0474616 52.4667 -0.252701 55.8351 0.310197C64.295 1.68047 71.3232 7.99203 73.1887 16.0061C74.6204 22.0685 73.2321 27.7157 70.1518 32.2002L83.731 45.197C85.423 46.8164 85.423 49.4324 83.731 51.0518C82.039 52.6713 79.2625 52.6713 77.5705 51.0518ZM65.0759 20.7813C65.0759 13.9299 59.2191 8.32422 52.0607 8.32422C44.9024 8.32422 39.0456 13.9299 39.0456 20.7813C39.0456 27.6326 44.9024 33.2383 52.0607 33.2383C59.2191 33.2383 65.0759 27.6326 65.0759 20.7813ZM4.3384 54H39.0456C41.4317 54 43.3839 52.1314 43.3839 49.8477C43.3839 47.5639 41.4317 45.6953 39.0456 45.6953H4.3384C1.95228 45.6953 0 47.5639 0 49.8477C0 52.1314 1.95228 54 4.3384 54Z" fill="#956B8A"/>
</svg>
