<svg width="88" height="88" viewBox="0 0 88 88" fill="none" xmlns="http://www.w3.org/2000/svg">
<g clip-path="url(#clip0_4_4210)">
<path d="M57.75 0.0859375L88 15.2109V48.9414L82.5 46.1914V21.3555L60.5 32.3555V43.4414L55 46.1914V32.3555L33 21.3555V31.1094L27.5 28.3594V15.2109L57.75 0.0859375ZM57.75 27.5859L65.3555 23.7617L45.4609 12.375L36.3945 16.9297L57.75 27.5859ZM71.2852 20.8398L79.1055 16.9297L57.75 6.23047L51.3477 9.45312L71.2852 20.8398ZM49.5 48.9414L44 51.6914V51.6484L27.5 59.8984V79.4492L44 71.1562V77.3438L24.75 86.9688L0 74.5508V45.5039L24.75 33.1289L49.5 45.5039V48.9414ZM22 79.4492V59.8984L5.5 51.6484V71.1562L22 79.4492ZM24.75 55.1289L40.6055 47.2227L24.75 39.2734L8.89453 47.2227L24.75 55.1289ZM49.5 55.0859L68.75 45.4609L88 55.0859V77.7305L68.75 87.3555L49.5 77.7305V55.0859ZM66 79.8359V66.7305L55 61.2305V74.3359L66 79.8359ZM82.5 74.3359V61.2305L71.5 66.7305V79.8359L82.5 74.3359ZM68.75 61.9609L79.1055 56.7617L68.75 51.6055L58.3945 56.7617L68.75 61.9609Z" fill="#956B8A"/>
</g>
<defs>
<clipPath id="clip0_4_4210">
<rect width="88" height="88" fill="white"/>
</clipPath>
</defs>
</svg>
