<svg width="88" height="88" viewBox="0 0 88 88" fill="none" xmlns="http://www.w3.org/2000/svg">
<path d="M69.6667 14.6665C71.6116 14.6665 73.4768 15.4391 74.8521 16.8144C76.2274 18.1897 77 20.0549 77 21.9998V65.9998C77 67.9448 76.2274 69.81 74.8521 71.1853C73.4768 72.5606 71.6116 73.3332 69.6667 73.3332H18.3333C16.3884 73.3332 14.5231 72.5606 13.1479 71.1853C11.7726 69.81 11 67.9448 11 65.9998V21.9998C11 20.0549 11.7726 18.1897 13.1479 16.8144C14.5231 15.4391 16.3884 14.6665 18.3333 14.6665H69.6667ZM69.6667 36.6665H18.3333V62.3332C18.3335 63.2313 18.6632 64.0981 19.26 64.7692C19.8567 65.4403 20.6791 65.8691 21.571 65.9742L22 65.9998H66C66.8981 65.9997 67.7649 65.67 68.436 65.0732C69.1072 64.4764 69.5359 63.6541 69.641 62.7622L69.6667 62.3332V36.6665ZM22 21.9998C21.0275 21.9998 20.0949 22.3861 19.4073 23.0738C18.7196 23.7614 18.3333 24.694 18.3333 25.6665C18.3333 26.639 18.7196 27.5716 19.4073 28.2592C20.0949 28.9469 21.0275 29.3332 22 29.3332C22.9725 29.3332 23.9051 28.9469 24.5927 28.2592C25.2804 27.5716 25.6667 26.639 25.6667 25.6665C25.6667 24.694 25.2804 23.7614 24.5927 23.0738C23.9051 22.3861 22.9725 21.9998 22 21.9998ZM33 21.9998C32.0275 21.9998 31.0949 22.3861 30.4073 23.0738C29.7196 23.7614 29.3333 24.694 29.3333 25.6665C29.3333 26.639 29.7196 27.5716 30.4073 28.2592C31.0949 28.9469 32.0275 29.3332 33 29.3332C33.9725 29.3332 34.9051 28.9469 35.5927 28.2592C36.2804 27.5716 36.6667 26.639 36.6667 25.6665C36.6667 24.694 36.2804 23.7614 35.5927 23.0738C34.9051 22.3861 33.9725 21.9998 33 21.9998ZM44 21.9998C43.0275 21.9998 42.0949 22.3861 41.4073 23.0738C40.7196 23.7614 40.3333 24.694 40.3333 25.6665C40.3333 26.639 40.7196 27.5716 41.4073 28.2592C42.0949 28.9469 43.0275 29.3332 44 29.3332C44.9725 29.3332 45.9051 28.9469 46.5927 28.2592C47.2804 27.5716 47.6667 26.639 47.6667 25.6665C47.6667 24.694 47.2804 23.7614 46.5927 23.0738C45.9051 22.3861 44.9725 21.9998 44 21.9998Z" fill="#956B8A"/>
</svg>
