<svg width="88" height="88" viewBox="0 0 88 88" fill="none" xmlns="http://www.w3.org/2000/svg">
<g clip-path="url(#clip0_16_8238)">
<path d="M44 18.3335C40.5964 18.3335 37.3322 19.6856 34.9255 22.0923C32.5187 24.499 31.1667 27.7632 31.1667 31.1668C31.1667 34.5704 32.5187 37.8346 34.9255 40.2414C37.3322 42.6481 40.5964 44.0002 44 44.0002C47.4036 44.0002 50.6678 42.6481 53.0745 40.2414C55.4813 37.8346 56.8333 34.5704 56.8333 31.1668C56.8333 27.7632 55.4813 24.499 53.0745 22.0923C50.6678 19.6856 47.4036 18.3335 44 18.3335ZM44 25.6668C45.4587 25.6668 46.8576 26.2463 47.8891 27.2777C48.9205 28.3092 49.5 29.7081 49.5 31.1668C49.5 32.6255 48.9205 34.0245 47.8891 35.0559C46.8576 36.0874 45.4587 36.6668 44 36.6668C42.5413 36.6668 41.1424 36.0874 40.1109 35.0559C39.0795 34.0245 38.5 32.6255 38.5 31.1668C38.5 29.7081 39.0795 28.3092 40.1109 27.2777C41.1424 26.2463 42.5413 25.6668 44 25.6668ZM20.1667 29.3335C17.7355 29.3335 15.4039 30.2993 13.6849 32.0183C11.9658 33.7374 11 36.069 11 38.5002C11 41.9468 12.9433 44.9168 15.73 46.4935C17.05 47.2268 18.5533 47.6668 20.1667 47.6668C21.78 47.6668 23.2833 47.2268 24.6033 46.4935C25.96 45.7235 27.0967 44.6235 27.94 43.3035C25.2688 39.8223 23.8248 35.5548 23.8333 31.1668V30.1402C22.7333 29.6268 21.4867 29.3335 20.1667 29.3335ZM67.8333 29.3335C66.5133 29.3335 65.2667 29.6268 64.1667 30.1402V31.1668C64.1667 35.5668 62.7367 39.8202 60.06 43.3035C60.5 44.0002 60.9767 44.5502 61.5267 45.1002C63.2176 46.7395 65.4782 47.6595 67.8333 47.6668C69.4467 47.6668 70.95 47.2268 72.27 46.4935C75.0567 44.9168 77 41.9468 77 38.5002C77 36.069 76.0342 33.7374 74.3151 32.0183C72.5961 30.2993 70.2645 29.3335 67.8333 29.3335ZM44 51.3335C35.42 51.3335 18.3333 55.6235 18.3333 64.1668V69.6668H69.6667V64.1668C69.6667 55.6235 52.58 51.3335 44 51.3335ZM17.27 53.3502C10.1933 54.1935 0 57.7868 0 64.1668V69.6668H11V62.5902C11 58.8868 13.53 55.8068 17.27 53.3502ZM70.73 53.3502C74.47 55.8068 77 58.8868 77 62.5902V69.6668H88V64.1668C88 57.7868 77.8067 54.1935 70.73 53.3502ZM44 58.6668C49.61 58.6668 55.88 60.5002 59.51 62.3335H28.49C32.12 60.5002 38.39 58.6668 44 58.6668Z" fill="#956B8A"/>
</g>
<defs>
<clipPath id="clip0_16_8238">
<rect width="88" height="88" fill="white"/>
</clipPath>
</defs>
</svg>
