<svg width="66" height="66" viewBox="0 0 66 66" fill="none" xmlns="http://www.w3.org/2000/svg">
<path d="M58 46.8889V19.1111C58 13.0889 46.5531 8 33 8C19.4469 8 8 13.0889 8 19.1111V46.8889C8 52.9111 19.4469 58 33 58C46.5531 58 58 52.9111 58 46.8889ZM33 13.5556C44.5344 13.5556 51.5344 17.7417 51.75 19.0944C51.5344 20.4806 44.5344 24.6667 33 24.6667C21.4656 24.6667 14.4656 20.4806 14.25 19.1278C14.4656 17.7417 21.4656 13.5556 33 13.5556ZM14.25 26.3528C18.8719 28.7056 25.6156 30.2222 33 30.2222C40.3844 30.2222 47.1281 28.7056 51.75 26.3528V32.9833C51.5344 34.3694 44.5344 38.5556 33 38.5556C21.4656 38.5556 14.4656 34.3694 14.25 33V26.3528ZM14.25 46.8889V40.2417C18.8719 42.5944 25.6156 44.1111 33 44.1111C40.3844 44.1111 47.1281 42.5944 51.75 40.2417V46.8722C51.5344 48.2583 44.5344 52.4444 33 52.4444C21.4656 52.4444 14.4656 48.2583 14.25 46.8889Z" fill="#956B8A"/>
</svg>
