<svg width="66" height="66" viewBox="0 0 66 66" fill="none" xmlns="http://www.w3.org/2000/svg">
<path d="M9.62488 43.9375V36.3125H2V2H47.7493V9.625H55.3742V24.875H51.5617V13.4375H13.4373V40.125H36.312V43.9375H9.62488ZM9.62488 32.5V9.625H43.9369V5.8125H5.81244V32.5H9.62488ZM17.2498 36.3125V28.6875H21.0622V36.3125H17.2498ZM24.8747 36.3125V21.0625H28.6871V36.3125H24.8747ZM32.4995 36.3125V24.875H36.312V36.3125H32.4995ZM51.5617 28.6875C53.1304 28.6875 54.6097 28.9854 55.9997 29.5811C57.3896 30.1768 58.6009 30.9909 59.6334 32.0234C60.6659 33.056 61.49 34.2772 62.1055 35.687C62.7211 37.0968 63.0189 38.5762 62.9991 40.125C62.9991 41.7135 62.7012 43.1929 62.1055 44.563C61.5098 45.9331 60.6957 47.1444 59.6632 48.1968C58.6306 49.2492 57.4095 50.0732 55.9997 50.6689C54.5899 51.2646 53.1105 51.5625 51.5617 51.5625C50.3704 51.5625 49.2088 51.3838 48.0769 51.0264C46.9451 50.6689 45.9026 50.1427 44.9495 49.4478L31.9336 62.4341C31.5564 62.8114 31.1096 63 30.5933 63C30.077 63 29.6303 62.8114 29.253 62.4341C28.8757 62.0568 28.6871 61.61 28.6871 61.0938C28.6871 60.5775 28.8757 60.1307 29.253 59.7534L42.2391 46.7373C41.5442 45.7842 41.018 44.7417 40.6605 43.6099C40.3031 42.478 40.1244 41.3164 40.1244 40.125C40.1244 38.5563 40.4223 37.077 41.018 35.687C41.6137 34.297 42.4278 33.0858 43.4603 32.0532C44.4928 31.0207 45.7041 30.1966 47.094 29.5811C48.484 28.9655 49.9732 28.6676 51.5617 28.6875ZM51.5617 47.75C52.6141 47.75 53.597 47.5514 54.5104 47.1543C55.4238 46.7572 56.2379 46.2111 56.9528 45.5161C57.6676 44.8211 58.2137 44.0169 58.5909 43.1035C58.9682 42.1901 59.1668 41.1973 59.1866 40.125C59.1866 39.0726 58.9881 38.0897 58.5909 37.1763C58.1938 36.2629 57.6478 35.4487 56.9528 34.7339C56.2578 34.019 55.4536 33.473 54.5402 33.0957C53.6268 32.7184 52.634 32.5199 51.5617 32.5C50.5094 32.5 49.5265 32.6986 48.6131 33.0957C47.6997 33.4928 46.8855 34.0389 46.1707 34.7339C45.4559 35.4289 44.9098 36.2331 44.5326 37.1465C44.1553 38.0599 43.9567 39.0527 43.9369 40.125C43.9369 41.1774 44.1354 42.1603 44.5326 43.0737C44.9297 43.9871 45.4757 44.8013 46.1707 45.5161C46.8657 46.231 47.6699 46.777 48.5833 47.1543C49.4967 47.5316 50.4895 47.7301 51.5617 47.75Z" fill="#956B8A"/>
</svg>
