<svg width="66" height="66" viewBox="0 0 66 66" fill="none" xmlns="http://www.w3.org/2000/svg">
<path d="M23.1495 49.5H10.3125C9.76549 49.5 9.24089 49.2827 8.85409 48.8959C8.4673 48.5091 8.25 47.9845 8.25 47.4375V12.375H4.125C3.57799 12.375 3.05339 12.1577 2.66659 11.7709C2.2798 11.3841 2.0625 10.8595 2.0625 10.3125C2.0625 9.76549 2.2798 9.24089 2.66659 8.85409C3.05339 8.4673 3.57799 8.25 4.125 8.25H61.875C62.422 8.25 62.9466 8.4673 63.3334 8.85409C63.7202 9.24089 63.9375 9.76549 63.9375 10.3125C63.9375 10.8595 63.7202 11.3841 63.3334 11.7709C62.9466 12.1577 62.422 12.375 61.875 12.375H57.75V47.4375C57.75 47.9845 57.5327 48.5091 57.1459 48.8959C56.7591 49.2827 56.2345 49.5 55.6875 49.5H42.8753L50.0198 61.875H45.2595L38.115 49.5H27.9097L20.7652 61.875H16.005L23.1495 49.5ZM53.625 12.375H12.375V45.375H53.625V12.375ZM22.0853 34.4603C21.8935 34.652 21.6658 34.8041 21.4153 34.9079C21.1647 35.0117 20.8962 35.0651 20.625 35.0651C20.3538 35.0651 20.0853 35.0117 19.8347 34.9079C19.5842 34.8041 19.3565 34.652 19.1647 34.4603C18.973 34.2685 18.8209 34.0408 18.7171 33.7903C18.6133 33.5397 18.5599 33.2712 18.5599 33C18.5599 32.7288 18.6133 32.4603 18.7171 32.2097C18.8209 31.9592 18.973 31.7315 19.1647 31.5397L28.6811 22.0275L36.7661 28.0912L43.7662 19.338C43.9301 19.1121 44.1381 18.9219 44.3776 18.7787C44.6171 18.6355 44.8832 18.5425 45.1597 18.5051C45.4362 18.4678 45.7175 18.4869 45.9864 18.5614C46.2553 18.6359 46.5063 18.7642 46.7242 18.9385C46.9421 19.1128 47.1223 19.3295 47.2541 19.5755C47.3858 19.8215 47.4662 20.0917 47.4905 20.3697C47.5147 20.6477 47.4823 20.9277 47.3952 21.1928C47.3081 21.4579 47.1681 21.7026 46.9838 21.912L37.488 33.7879L29.0689 27.4725L22.0853 34.4561V34.4603Z" fill="#956B8A"/>
</svg>
