<svg width="66" height="66" viewBox="0 0 66 66" fill="none" xmlns="http://www.w3.org/2000/svg">
<path d="M19.3876 9.62547C17.5783 11.4396 16.5623 13.8971 16.5623 16.4592C16.5623 19.0213 17.5783 21.4789 19.3876 23.293L42.7351 46.613C44.3301 48.2355 44.3301 50.8755 42.7351 52.443C41.1126 54.0655 38.5001 54.0655 36.8776 52.443L25.2176 40.783L28.1326 37.868L18.4251 28.133L17.4351 29.123L13.5576 25.218C13.033 24.7024 12.3269 24.4134 11.5913 24.4134C10.8558 24.4134 10.1497 24.7024 9.62508 25.218L5.77508 29.123C4.70258 30.2505 4.70258 31.928 5.77508 33.0005L9.62508 36.878L8.69008 37.868L18.4251 47.5755L21.3401 44.6605L33.0001 56.3755C34.816 58.1601 37.2602 59.1601 39.8063 59.1601C42.3524 59.1601 44.7966 58.1601 46.6126 56.3755C50.3801 52.5805 50.3801 46.4755 46.6126 42.7355L23.2651 19.388C21.6701 17.7655 21.6701 15.1255 23.2651 13.558C24.8876 11.9355 27.5001 11.9355 29.1226 13.558L40.7826 25.218L37.8676 28.133L47.5751 37.868L48.5651 36.878L52.4426 40.783C53.5151 41.8555 55.2751 41.8555 56.3751 40.783L60.2251 36.878C61.2976 35.7505 61.2976 34.073 60.2251 33.0005L56.3751 29.123L57.3101 28.133L47.5751 18.4255L44.6601 21.3405L33.0001 9.62547C31.1841 7.84083 28.7399 6.84082 26.1938 6.84082C23.6477 6.84082 21.2035 7.84083 19.3876 9.62547ZM7.72758 31.048L11.6051 27.1705L15.5101 31.048L11.6051 34.953M50.4901 34.953L54.3951 31.048L58.2726 34.953L54.3951 38.8305L50.4901 34.953Z" fill="#956B8A"/>
</svg>
