<svg width="66" height="66" viewBox="0 0 66 66" fill="none" xmlns="http://www.w3.org/2000/svg">
<path d="M33 5.5C17.82 5.5 5.5 17.82 5.5 33C5.5 48.18 17.82 60.5 33 60.5C48.18 60.5 60.5 48.18 60.5 33C60.5 17.82 48.18 5.5 33 5.5ZM53.515 25.08L45.87 28.2425C45.1812 26.3893 44.0995 24.7072 42.6991 23.3116C41.2988 21.916 39.613 20.84 37.7575 20.1575L40.92 12.5125C46.695 14.7125 51.2875 19.305 53.515 25.08ZM33 41.25C28.435 41.25 24.75 37.565 24.75 33C24.75 28.435 28.435 24.75 33 24.75C37.565 24.75 41.25 28.435 41.25 33C41.25 37.565 37.565 41.25 33 41.25ZM25.1075 12.485L28.325 20.13C26.4476 20.8142 24.7419 21.8993 23.3266 23.3098C21.9113 24.7204 20.8205 26.4224 20.13 28.2975L12.485 25.1075C13.5877 22.2369 15.2811 19.63 17.4556 17.4556C19.63 15.2811 22.2369 13.5877 25.1075 12.485ZM12.485 40.8925L20.13 37.73C20.8157 39.6002 21.902 41.2978 23.3129 42.7039C24.7237 44.11 26.425 45.1906 28.2975 45.87L25.08 53.515C22.2155 52.4073 19.6149 50.7118 17.4456 48.5377C15.2763 46.3637 13.5865 43.7594 12.485 40.8925ZM40.92 53.515L37.7575 45.87C39.6217 45.1793 41.313 44.0909 42.714 42.6804C44.115 41.27 45.1919 39.5713 45.87 37.7025L53.515 40.92C52.4087 43.7808 50.7168 46.379 48.5479 48.5479C46.379 50.7168 43.7808 52.4087 40.92 53.515Z" fill="#956B8A"/>
</svg>
