<svg width="89" height="88" viewBox="0 0 89 88" fill="none" xmlns="http://www.w3.org/2000/svg">
<path d="M70.1667 22H62.8333C62.8333 11.7333 54.7667 3.66667 44.5 3.66667C34.2333 3.66667 26.1667 11.7333 26.1667 22H18.8333C14.8 22 11.5 25.3 11.5 29.3333V73.3333C11.5 77.3667 14.8 80.6667 18.8333 80.6667H70.1667C74.2 80.6667 77.5 77.3667 77.5 73.3333V29.3333C77.5 25.3 74.2 22 70.1667 22ZM44.5 11C50.7333 11 55.5 15.7667 55.5 22H33.5C33.5 15.7667 38.2667 11 44.5 11ZM70.1667 73.3333H18.8333V29.3333H70.1667V73.3333ZM44.5 44C38.2667 44 33.5 39.2333 33.5 33H26.1667C26.1667 43.2667 34.2333 51.3333 44.5 51.3333C54.7667 51.3333 62.8333 43.2667 62.8333 33H55.5C55.5 39.2333 50.7333 44 44.5 44Z" fill="#B45C9B"/>
</svg>
