<svg width="89" height="88" viewBox="0 0 89 88" fill="none" xmlns="http://www.w3.org/2000/svg">
<path d="M44.4997 25.6667C46.5247 25.6667 48.1663 24.025 48.1663 22C48.1663 19.975 46.5247 18.3333 44.4997 18.3333C42.4746 18.3333 40.833 19.975 40.833 22C40.833 24.025 42.4746 25.6667 44.4997 25.6667Z" fill="#B45C9B"/>
<path d="M22.5 62.3333H66.5V69.6667H22.5V62.3333ZM37.1667 43.3767L47.404 53.6213L61.8213 39.193L66.5 44V29.3333H51.8333L56.6367 34.0083L47.4003 43.2447L37.1667 33L22.5 47.6667L27.6847 52.8513L37.1667 43.3767Z" fill="#B45C9B"/>
<path d="M70.1663 11H58.0737C57.7137 10.4579 57.3219 9.9375 56.9003 9.44167L56.8637 9.39767C54.1697 6.25992 50.3794 4.26904 46.267 3.83167C45.0993 3.60933 43.9001 3.60933 42.7323 3.83167C38.6199 4.26904 34.8297 6.25992 32.1357 9.39767L32.099 9.44167C31.6776 9.93632 31.2858 10.4554 30.9257 10.9963L18.833 11C15.9165 11.0029 13.1203 12.1628 11.058 14.225C8.99578 16.2873 7.83592 19.0835 7.83301 22V73.3333C7.83592 76.2498 8.99578 79.046 11.058 81.1083C13.1203 83.1706 15.9165 84.3304 18.833 84.3333H70.1663C73.0828 84.3304 75.879 83.1706 77.9413 81.1083C80.0036 79.046 81.1634 76.2498 81.1663 73.3333V22C81.1634 19.0835 80.0036 16.2873 77.9413 14.225C75.879 12.1628 73.0828 11.0029 70.1663 11ZM73.833 73.3333C73.833 74.3058 73.4467 75.2384 72.7591 75.9261C72.0714 76.6137 71.1388 77 70.1663 77H18.833C17.8608 76.999 16.9288 76.6124 16.2414 75.925C15.5539 75.2376 15.1673 74.3055 15.1663 73.3333V22C15.1673 21.0278 15.5539 20.0958 16.2414 19.4083C16.9288 18.7209 17.8608 18.3343 18.833 18.3333H35.5163C35.9371 16.2611 37.0613 14.3981 38.6985 13.06C40.3357 11.7218 42.3852 10.9908 44.4997 10.9908C46.6142 10.9908 48.6636 11.7218 50.3008 13.06C51.938 14.3981 53.0622 16.2611 53.483 18.3333H70.1663C71.1385 18.3343 72.0706 18.7209 72.758 19.4083C73.4454 20.0958 73.832 21.0278 73.833 22V73.3333Z" fill="#B45C9B"/>
</svg>
