<svg width="89" height="88" viewBox="0 0 89 88" fill="none" xmlns="http://www.w3.org/2000/svg">
<path d="M18.8536 29.4766H5.8384C3.45228 29.4766 1.5 27.608 1.5 25.3242C1.5 23.0404 3.45228 21.1719 5.8384 21.1719H18.8536C21.2397 21.1719 23.192 23.0404 23.192 25.3242C23.192 27.608 21.2397 29.4766 18.8536 29.4766ZM18.8536 41.9336H5.8384C3.45228 41.9336 1.5 43.8021 1.5 46.0859C1.5 48.3697 3.45228 50.2383 5.8384 50.2383H18.8536C21.2397 50.2383 23.192 48.3697 23.192 46.0859C23.192 43.8021 21.2397 41.9336 18.8536 41.9336ZM79.0705 68.0518L65.5347 55.0965C61.8037 57.4218 57.3351 58.7506 52.5195 58.5014C42.2375 58.0447 33.4306 50.3629 32.0423 40.6048C31.5841 37.3616 31.9314 34.0606 33.056 30.9699C34.1806 27.8792 36.0507 25.0858 38.5147 22.8165C40.9786 20.5472 43.9669 18.866 47.2369 17.9093C50.507 16.9525 53.9667 16.7473 57.3351 17.3102C65.795 18.6805 72.8232 24.992 74.6887 33.0061C76.1204 39.0685 74.7321 44.7157 71.6518 49.2002L85.231 62.197C86.923 63.8164 86.923 66.4324 85.231 68.0518C83.539 69.6713 80.7625 69.6713 79.0705 68.0518ZM66.5759 37.7813C66.5759 30.9299 60.7191 25.3242 53.5607 25.3242C46.4024 25.3242 40.5456 30.9299 40.5456 37.7813C40.5456 44.6326 46.4024 50.2383 53.5607 50.2383C60.7191 50.2383 66.5759 44.6326 66.5759 37.7813ZM5.8384 71H40.5456C42.9317 71 44.8839 69.1314 44.8839 66.8477C44.8839 64.5639 42.9317 62.6953 40.5456 62.6953H5.8384C3.45228 62.6953 1.5 64.5639 1.5 66.8477C1.5 69.1314 3.45228 71 5.8384 71Z" fill="#B45C9B"/>
</svg>
