<svg width="89" height="88" viewBox="0 0 89 88" fill="none" xmlns="http://www.w3.org/2000/svg">
<g clip-path="url(#clip0_22_17078)">
<path d="M58.25 0.0859375L88.5 15.2109V48.9414L83 46.1914V21.3555L61 32.3555V43.4414L55.5 46.1914V32.3555L33.5 21.3555V31.1094L28 28.3594V15.2109L58.25 0.0859375ZM58.25 27.5859L65.8555 23.7617L45.9609 12.375L36.8945 16.9297L58.25 27.5859ZM71.7852 20.8398L79.6055 16.9297L58.25 6.23047L51.8477 9.45312L71.7852 20.8398ZM50 48.9414L44.5 51.6914V51.6484L28 59.8984V79.4492L44.5 71.1562V77.3438L25.25 86.9688L0.5 74.5508V45.5039L25.25 33.1289L50 45.5039V48.9414ZM22.5 79.4492V59.8984L6 51.6484V71.1562L22.5 79.4492ZM25.25 55.1289L41.1055 47.2227L25.25 39.2734L9.39453 47.2227L25.25 55.1289ZM50 55.0859L69.25 45.4609L88.5 55.0859V77.7305L69.25 87.3555L50 77.7305V55.0859ZM66.5 79.8359V66.7305L55.5 61.2305V74.3359L66.5 79.8359ZM83 74.3359V61.2305L72 66.7305V79.8359L83 74.3359ZM69.25 61.9609L79.6055 56.7617L69.25 51.6055L58.8945 56.7617L69.25 61.9609Z" fill="#B45C9B"/>
</g>
<defs>
<clipPath id="clip0_22_17078">
<rect width="88" height="88" fill="white" transform="translate(0.5)"/>
</clipPath>
</defs>
</svg>
