<svg width="89" height="88" viewBox="0 0 89 88" fill="none" xmlns="http://www.w3.org/2000/svg">
<g clip-path="url(#clip0_22_17500)">
<path d="M70.1667 14.6667C72.1116 14.6667 73.9768 15.4393 75.3521 16.8145C76.7274 18.1898 77.5 20.0551 77.5 22V66C77.5 67.9449 76.7274 69.8102 75.3521 71.1854C73.9768 72.5607 72.1116 73.3333 70.1667 73.3333H18.8333C16.8884 73.3333 15.0231 72.5607 13.6479 71.1854C12.2726 69.8102 11.5 67.9449 11.5 66V22C11.5 20.0551 12.2726 18.1898 13.6479 16.8145C15.0231 15.4393 16.8884 14.6667 18.8333 14.6667H70.1667ZM70.1667 36.6667H18.8333V62.3333C18.8335 63.2314 19.1632 64.0982 19.76 64.7694C20.3567 65.4405 21.1791 65.8693 22.071 65.9743L22.5 66H66.5C67.3981 65.9999 68.2649 65.6702 68.936 65.0734C69.6072 64.4766 70.0359 63.6543 70.141 62.7623L70.1667 62.3333V36.6667ZM22.5 22C21.5275 22 20.5949 22.3863 19.9073 23.0739C19.2196 23.7616 18.8333 24.6942 18.8333 25.6667C18.8333 26.6391 19.2196 27.5718 19.9073 28.2594C20.5949 28.947 21.5275 29.3333 22.5 29.3333C23.4725 29.3333 24.4051 28.947 25.0927 28.2594C25.7804 27.5718 26.1667 26.6391 26.1667 25.6667C26.1667 24.6942 25.7804 23.7616 25.0927 23.0739C24.4051 22.3863 23.4725 22 22.5 22ZM33.5 22C32.5275 22 31.5949 22.3863 30.9073 23.0739C30.2196 23.7616 29.8333 24.6942 29.8333 25.6667C29.8333 26.6391 30.2196 27.5718 30.9073 28.2594C31.5949 28.947 32.5275 29.3333 33.5 29.3333C34.4725 29.3333 35.4051 28.947 36.0927 28.2594C36.7804 27.5718 37.1667 26.6391 37.1667 25.6667C37.1667 24.6942 36.7804 23.7616 36.0927 23.0739C35.4051 22.3863 34.4725 22 33.5 22ZM44.5 22C43.5275 22 42.5949 22.3863 41.9073 23.0739C41.2196 23.7616 40.8333 24.6942 40.8333 25.6667C40.8333 26.6391 41.2196 27.5718 41.9073 28.2594C42.5949 28.947 43.5275 29.3333 44.5 29.3333C45.4725 29.3333 46.4051 28.947 47.0927 28.2594C47.7804 27.5718 48.1667 26.6391 48.1667 25.6667C48.1667 24.6942 47.7804 23.7616 47.0927 23.0739C46.4051 22.3863 45.4725 22 44.5 22Z" fill="#B45C9B"/>
</g>
<defs>
<clipPath id="clip0_22_17500">
<rect width="88" height="88" fill="white" transform="translate(0.5)"/>
</clipPath>
</defs>
</svg>
