<svg width="89" height="88" viewBox="0 0 89 88" fill="none" xmlns="http://www.w3.org/2000/svg">
<g clip-path="url(#clip0_22_17927)">
<path d="M44.5 18.3333C41.0964 18.3333 37.8322 19.6854 35.4255 22.0921C33.0187 24.4988 31.6667 27.7631 31.6667 31.1667C31.6667 34.5703 33.0187 37.8345 35.4255 40.2412C37.8322 42.6479 41.0964 44 44.5 44C47.9036 44 51.1678 42.6479 53.5745 40.2412C55.9813 37.8345 57.3333 34.5703 57.3333 31.1667C57.3333 27.7631 55.9813 24.4988 53.5745 22.0921C51.1678 19.6854 47.9036 18.3333 44.5 18.3333ZM44.5 25.6667C45.9587 25.6667 47.3576 26.2461 48.3891 27.2776C49.4205 28.309 50 29.708 50 31.1667C50 32.6254 49.4205 34.0243 48.3891 35.0558C47.3576 36.0872 45.9587 36.6667 44.5 36.6667C43.0413 36.6667 41.6424 36.0872 40.6109 35.0558C39.5795 34.0243 39 32.6254 39 31.1667C39 29.708 39.5795 28.309 40.6109 27.2776C41.6424 26.2461 43.0413 25.6667 44.5 25.6667ZM20.6667 29.3333C18.2355 29.3333 15.9039 30.2991 14.1849 32.0182C12.4658 33.7373 11.5 36.0689 11.5 38.5C11.5 41.9467 13.4433 44.9167 16.23 46.4933C17.55 47.2267 19.0533 47.6667 20.6667 47.6667C22.28 47.6667 23.7833 47.2267 25.1033 46.4933C26.46 45.7233 27.5967 44.6233 28.44 43.3033C25.7688 39.8221 24.3248 35.5547 24.3333 31.1667V30.14C23.2333 29.6267 21.9867 29.3333 20.6667 29.3333ZM68.3333 29.3333C67.0133 29.3333 65.7667 29.6267 64.6667 30.14V31.1667C64.6667 35.5667 63.2367 39.82 60.56 43.3033C61 44 61.4767 44.55 62.0267 45.1C63.7176 46.7394 65.9782 47.6594 68.3333 47.6667C69.9467 47.6667 71.45 47.2267 72.77 46.4933C75.5567 44.9167 77.5 41.9467 77.5 38.5C77.5 36.0689 76.5342 33.7373 74.8151 32.0182C73.0961 30.2991 70.7645 29.3333 68.3333 29.3333ZM44.5 51.3333C35.92 51.3333 18.8333 55.6233 18.8333 64.1667V69.6667H70.1667V64.1667C70.1667 55.6233 53.08 51.3333 44.5 51.3333ZM17.77 53.35C10.6933 54.1933 0.5 57.7867 0.5 64.1667V69.6667H11.5V62.59C11.5 58.8867 14.03 55.8067 17.77 53.35ZM71.23 53.35C74.97 55.8067 77.5 58.8867 77.5 62.59V69.6667H88.5V64.1667C88.5 57.7867 78.3067 54.1933 71.23 53.35ZM44.5 58.6667C50.11 58.6667 56.38 60.5 60.01 62.3333H28.99C32.62 60.5 38.89 58.6667 44.5 58.6667Z" fill="#B45C9B"/>
</g>
<defs>
<clipPath id="clip0_22_17927">
<rect width="88" height="88" fill="white" transform="translate(0.5)"/>
</clipPath>
</defs>
</svg>
